<svg width="17" height="16" viewBox="0 0 17 16" fill="none" xmlns="http://www.w3.org/2000/svg">
<mask id="mask0_251_78061" style="mask-type:alpha" maskUnits="userSpaceOnUse" x="0" y="0" width="17" height="16">
<rect x="0.5" width="16" height="16" fill="#D9D9D9"/>
</mask>
<g mask="url(#mask0_251_78061)">
<path d="M3.83382 14.3333C3.46715 14.3333 3.15327 14.2028 2.89215 13.9417C2.63104 13.6806 2.50049 13.3667 2.50049 13V3.66667C2.50049 3.3 2.63104 2.98611 2.89215 2.725C3.15327 2.46389 3.46715 2.33333 3.83382 2.33333H4.50049V1H5.83382V2.33333H11.1672V1H12.5005V2.33333H13.1672C13.5338 2.33333 13.8477 2.46389 14.1088 2.725C14.3699 2.98611 14.5005 3.3 14.5005 3.66667V13C14.5005 13.3667 14.3699 13.6806 14.1088 13.9417C13.8477 14.2028 13.5338 14.3333 13.1672 14.3333H3.83382ZM3.83382 13H13.1672V6.33333H3.83382V13ZM3.83382 5H13.1672V3.66667H3.83382V5ZM8.50049 9C8.3116 9 8.15327 8.93611 8.02549 8.80833C7.89771 8.68056 7.83382 8.52222 7.83382 8.33333C7.83382 8.14444 7.89771 7.98611 8.02549 7.85833C8.15327 7.73056 8.3116 7.66667 8.50049 7.66667C8.68938 7.66667 8.84771 7.73056 8.97549 7.85833C9.10327 7.98611 9.16716 8.14444 9.16716 8.33333C9.16716 8.52222 9.10327 8.68056 8.97549 8.80833C8.84771 8.93611 8.68938 9 8.50049 9ZM5.83382 9C5.64493 9 5.4866 8.93611 5.35882 8.80833C5.23104 8.68056 5.16716 8.52222 5.16716 8.33333C5.16716 8.14444 5.23104 7.98611 5.35882 7.85833C5.4866 7.73056 5.64493 7.66667 5.83382 7.66667C6.02271 7.66667 6.18104 7.73056 6.30882 7.85833C6.4366 7.98611 6.50049 8.14444 6.50049 8.33333C6.50049 8.52222 6.4366 8.68056 6.30882 8.80833C6.18104 8.93611 6.02271 9 5.83382 9ZM11.1672 9C10.9783 9 10.8199 8.93611 10.6922 8.80833C10.5644 8.68056 10.5005 8.52222 10.5005 8.33333C10.5005 8.14444 10.5644 7.98611 10.6922 7.85833C10.8199 7.73056 10.9783 7.66667 11.1672 7.66667C11.356 7.66667 11.5144 7.73056 11.6422 7.85833C11.7699 7.98611 11.8338 8.14444 11.8338 8.33333C11.8338 8.52222 11.7699 8.68056 11.6422 8.80833C11.5144 8.93611 11.356 9 11.1672 9ZM8.50049 11.6667C8.3116 11.6667 8.15327 11.6028 8.02549 11.475C7.89771 11.3472 7.83382 11.1889 7.83382 11C7.83382 10.8111 7.89771 10.6528 8.02549 10.525C8.15327 10.3972 8.3116 10.3333 8.50049 10.3333C8.68938 10.3333 8.84771 10.3972 8.97549 10.525C9.10327 10.6528 9.16716 10.8111 9.16716 11C9.16716 11.1889 9.10327 11.3472 8.97549 11.475C8.84771 11.6028 8.68938 11.6667 8.50049 11.6667ZM5.83382 11.6667C5.64493 11.6667 5.4866 11.6028 5.35882 11.475C5.23104 11.3472 5.16716 11.1889 5.16716 11C5.16716 10.8111 5.23104 10.6528 5.35882 10.525C5.4866 10.3972 5.64493 10.3333 5.83382 10.3333C6.02271 10.3333 6.18104 10.3972 6.30882 10.525C6.4366 10.6528 6.50049 10.8111 6.50049 11C6.50049 11.1889 6.4366 11.3472 6.30882 11.475C6.18104 11.6028 6.02271 11.6667 5.83382 11.6667ZM11.1672 11.6667C10.9783 11.6667 10.8199 11.6028 10.6922 11.475C10.5644 11.3472 10.5005 11.1889 10.5005 11C10.5005 10.8111 10.5644 10.6528 10.6922 10.525C10.8199 10.3972 10.9783 10.3333 11.1672 10.3333C11.356 10.3333 11.5144 10.3972 11.6422 10.525C11.7699 10.6528 11.8338 10.8111 11.8338 11C11.8338 11.1889 11.7699 11.3472 11.6422 11.475C11.5144 11.6028 11.356 11.6667 11.1672 11.6667Z" fill="#A0A1AB"/>
</g>
</svg>
