<svg width="25" height="25" viewBox="0 0 25 25" fill="none" xmlns="http://www.w3.org/2000/svg">
<rect x="0.0435333" y="0.482422" width="24" height="24" rx="4" fill="#0090A1" fill-opacity="0.1"/>
<g clip-path="url(#clip0_0_43467)">
<path fill-rule="evenodd" clip-rule="evenodd" d="M7.98287 7.42176C8.26418 7.14046 8.64571 6.98242 9.04353 6.98242H13.0435C13.1761 6.98242 13.3033 7.0351 13.3971 7.12887L16.3971 10.1289C16.4909 10.2226 16.5435 10.3498 16.5435 10.4824V16.4824C16.5435 16.8802 16.3855 17.2618 16.1042 17.5431C15.8229 17.8244 15.4414 17.9824 15.0435 17.9824H9.04353C8.64571 17.9824 8.26418 17.8244 7.98287 17.5431C7.70157 17.2618 7.54353 16.8802 7.54353 16.4824V8.48242C7.54353 8.0846 7.70157 7.70307 7.98287 7.42176ZM9.04353 7.98242C8.91092 7.98242 8.78375 8.0351 8.68998 8.12887C8.59621 8.22264 8.54353 8.34981 8.54353 8.48242V16.4824C8.54353 16.615 8.59621 16.7422 8.68998 16.836C8.78375 16.9297 8.91093 16.9824 9.04353 16.9824H15.0435C15.1761 16.9824 15.3033 16.9297 15.3971 16.836C15.4909 16.7422 15.5435 16.615 15.5435 16.4824V10.6895L12.8364 7.98242H9.04353Z" fill="#0090A1"/>
<path fill-rule="evenodd" clip-rule="evenodd" d="M13.0435 6.98242C13.3197 6.98242 13.5435 7.20628 13.5435 7.48242V9.98242H16.0435C16.3197 9.98242 16.5435 10.2063 16.5435 10.4824C16.5435 10.7586 16.3197 10.9824 16.0435 10.9824H13.0435C12.7674 10.9824 12.5435 10.7586 12.5435 10.4824V7.48242C12.5435 7.20628 12.7674 6.98242 13.0435 6.98242Z" fill="#0090A1"/>
<path fill-rule="evenodd" clip-rule="evenodd" d="M9.54353 12.9824C9.54353 12.7063 9.76739 12.4824 10.0435 12.4824H14.0435C14.3197 12.4824 14.5435 12.7063 14.5435 12.9824C14.5435 13.2586 14.3197 13.4824 14.0435 13.4824H10.0435C9.76739 13.4824 9.54353 13.2586 9.54353 12.9824Z" fill="#0090A1"/>
<path fill-rule="evenodd" clip-rule="evenodd" d="M9.54353 14.9824C9.54353 14.7063 9.76739 14.4824 10.0435 14.4824H14.0435C14.3197 14.4824 14.5435 14.7063 14.5435 14.9824C14.5435 15.2586 14.3197 15.4824 14.0435 15.4824H10.0435C9.76739 15.4824 9.54353 15.2586 9.54353 14.9824Z" fill="#0090A1"/>
<path fill-rule="evenodd" clip-rule="evenodd" d="M9.54353 10.9824C9.54353 10.7063 9.76739 10.4824 10.0435 10.4824H11.0435C11.3197 10.4824 11.5435 10.7063 11.5435 10.9824C11.5435 11.2586 11.3197 11.4824 11.0435 11.4824H10.0435C9.76739 11.4824 9.54353 11.2586 9.54353 10.9824Z" fill="#0090A1"/>
</g>
<defs>
<clipPath id="clip0_0_43467">
<rect width="12" height="12" fill="white" transform="translate(6.04353 6.48242)"/>
</clipPath>
</defs>
</svg>
