<svg width="25" height="25" viewBox="0 0 25 25" fill="none" xmlns="http://www.w3.org/2000/svg">
<rect x="0.504395" y="0.482422" width="24" height="24" rx="4" fill="#0090A1" fill-opacity="0.1"/>
<g clip-path="url(#clip0_0_43479)">
<path fill-rule="evenodd" clip-rule="evenodd" d="M12.5044 11.4824C11.9521 11.4824 11.5044 11.9301 11.5044 12.4824C11.5044 13.0347 11.9521 13.4824 12.5044 13.4824C13.0567 13.4824 13.5044 13.0347 13.5044 12.4824C13.5044 11.9301 13.0567 11.4824 12.5044 11.4824ZM10.5044 12.4824C10.5044 11.3779 11.3998 10.4824 12.5044 10.4824C13.609 10.4824 14.5044 11.3779 14.5044 12.4824C14.5044 13.587 13.609 14.4824 12.5044 14.4824C11.3998 14.4824 10.5044 13.587 10.5044 12.4824Z" fill="#0090A1"/>
<path fill-rule="evenodd" clip-rule="evenodd" d="M12.5044 7.48242C12.3718 7.48242 12.2446 7.5351 12.1508 7.62887C12.0571 7.72264 12.0044 7.84981 12.0044 7.98242V8.06942C12.0034 8.32782 11.9268 8.58028 11.7841 8.79573C11.6414 9.01117 11.4389 9.1802 11.2014 9.28199C11.1591 9.30011 11.1146 9.31227 11.0692 9.3182C10.8534 9.39378 10.6211 9.41241 10.3949 9.3714C10.1344 9.32417 9.89402 9.19998 9.70476 9.01485L9.70082 9.011L9.67084 8.98098C9.6244 8.93449 9.56906 8.89741 9.50836 8.87225C9.44767 8.84709 9.3826 8.83414 9.31689 8.83414C9.25119 8.83414 9.18612 8.84709 9.12542 8.87225C9.06473 8.89741 9.00958 8.93429 8.96314 8.98078L8.96275 8.98117C8.91626 9.02761 8.87938 9.08275 8.85422 9.14345C8.82906 9.20415 8.81611 9.26921 8.81611 9.33492C8.81611 9.40063 8.82906 9.46569 8.85422 9.52639C8.87938 9.58709 8.91626 9.64224 8.96275 9.68867L8.99685 9.72277C9.18198 9.91203 9.30614 10.1524 9.35337 10.4129C9.39967 10.6682 9.36996 10.9314 9.26812 11.1698C9.17534 11.4131 9.01288 11.6238 8.80092 11.7754C8.58467 11.93 8.32689 12.0161 8.06109 12.0223L8.04939 12.0224H8.00439C7.87179 12.0224 7.74461 12.0751 7.65084 12.1689C7.55707 12.2626 7.50439 12.3898 7.50439 12.5224C7.50439 12.655 7.55707 12.7822 7.65084 12.876C7.74461 12.9697 7.87179 13.0224 8.00439 13.0224H8.09139C8.34979 13.0235 8.60226 13.1 8.8177 13.2427C9.0324 13.3849 9.20099 13.5865 9.3029 13.823C9.40893 14.0646 9.44045 14.3323 9.39337 14.5919C9.34614 14.8524 9.22195 15.0928 9.03683 15.2821L9.03297 15.286L9.00295 15.316C8.95646 15.3624 8.91938 15.4178 8.89422 15.4785C8.86906 15.5392 8.85611 15.6042 8.85611 15.6699C8.85611 15.7356 8.86906 15.8007 8.89422 15.8614C8.91938 15.9221 8.95626 15.9772 9.00275 16.0237L9.00314 16.0241C9.04958 16.0706 9.10472 16.1074 9.16542 16.1326C9.22612 16.1578 9.29119 16.1707 9.35689 16.1707C9.4226 16.1707 9.48766 16.1578 9.54836 16.1326C9.60906 16.1074 9.66421 16.0706 9.71064 16.0241L9.74474 15.99C9.934 15.8048 10.1744 15.6807 10.4349 15.6334C10.6902 15.5871 10.9534 15.6169 11.1918 15.7187C11.4351 15.8115 11.6457 15.9739 11.7973 16.1859C11.952 16.4022 12.038 16.6599 12.0443 16.9257L12.0444 16.9374V16.9824C12.0444 17.115 12.0971 17.2422 12.1908 17.336C12.2846 17.4297 12.4118 17.4824 12.5444 17.4824C12.677 17.4824 12.8042 17.4297 12.8979 17.336C12.9917 17.2422 13.0444 17.115 13.0444 16.9824V16.8974L13.0444 16.8954C13.0454 16.637 13.122 16.3846 13.2647 16.1691C13.4069 15.9544 13.6085 15.7858 13.845 15.6839C14.0866 15.5779 14.3543 15.5464 14.6139 15.5934C14.8744 15.6407 15.1148 15.7649 15.304 15.95L15.308 15.9538L15.3379 15.9839C15.3844 16.0304 15.4397 16.0674 15.5004 16.0926C15.5611 16.1178 15.6262 16.1307 15.6919 16.1307C15.7576 16.1307 15.8227 16.1178 15.8834 16.0926C15.9441 16.0674 15.9992 16.0306 16.0456 15.9841L16.046 15.9837C16.0925 15.9372 16.1294 15.8821 16.1546 15.8214C16.1797 15.7607 16.1927 15.6956 16.1927 15.6299C16.1927 15.5642 16.1797 15.4992 16.1546 15.4385C16.1294 15.3778 16.0925 15.3226 16.046 15.2762L16.0119 15.2421C15.8268 15.0528 15.7026 14.8124 15.6554 14.5519C15.6083 14.2923 15.6398 14.0246 15.7459 13.783C15.8478 13.5466 16.0164 13.3449 16.2311 13.2027C16.4465 13.06 16.699 12.9835 16.9574 12.9824L16.9594 12.9824L17.0044 12.9824C17.137 12.9824 17.2642 12.9297 17.3579 12.836C17.4517 12.7422 17.5044 12.615 17.5044 12.4824C17.5044 12.3498 17.4517 12.2226 17.3579 12.1289C17.2642 12.0351 17.137 11.9824 17.0044 11.9824H16.9194L16.9174 11.9824C16.659 11.9814 16.4065 11.9048 16.1911 11.7621C15.9756 11.6195 15.8066 11.4169 15.7048 11.1794C15.6867 11.1371 15.6745 11.0926 15.6686 11.0472C15.593 10.8314 15.5744 10.5991 15.6154 10.3729C15.6626 10.1124 15.7868 9.87205 15.972 9.68279L15.9758 9.67885L16.0058 9.64887C16.0523 9.60243 16.0894 9.54709 16.1146 9.48639C16.1397 9.42569 16.1527 9.36063 16.1527 9.29492C16.1527 9.22921 16.1397 9.16415 16.1146 9.10345C16.0894 9.04275 16.0525 8.98761 16.006 8.94117L16.0056 8.94078C15.9592 8.89429 15.9041 8.85741 15.8434 8.83225C15.7827 8.80709 15.7176 8.79414 15.6519 8.79414C15.5862 8.79414 15.5211 8.80709 15.4604 8.83225C15.3997 8.85741 15.3446 8.89429 15.2981 8.94078L15.264 8.97487C15.0748 9.16 14.8344 9.28417 14.5739 9.3314C14.3143 9.37848 14.0465 9.34696 13.805 9.24093C13.5685 9.13902 13.3669 8.97043 13.2247 8.75573C13.082 8.54028 13.0054 8.28782 13.0044 8.02942L13.0044 8.02742V7.98242C13.0044 7.84981 12.9517 7.72264 12.8579 7.62887C12.7642 7.5351 12.637 7.48242 12.5044 7.48242ZM11.4437 6.92176C11.725 6.64046 12.1066 6.48242 12.5044 6.48242C12.9022 6.48242 13.2838 6.64046 13.5651 6.92176C13.8464 7.20307 14.0044 7.5846 14.0044 7.98242V8.02617C14.0048 8.08929 14.0236 8.15094 14.0584 8.20358C14.0934 8.25643 14.1431 8.29788 14.2014 8.32285L14.2063 8.32496C14.2657 8.35118 14.3316 8.35903 14.3955 8.34745C14.4587 8.33599 14.517 8.30606 14.5632 8.26148L14.5906 8.23407C14.73 8.0946 14.8954 7.98396 15.0775 7.90848C15.2596 7.83299 15.4548 7.79414 15.6519 7.79414C15.849 7.79414 16.0442 7.83299 16.2263 7.90848C16.4084 7.98396 16.5738 8.0946 16.7131 8.23407C16.8524 8.37329 16.9629 8.53859 17.0383 8.72051C17.1138 8.90261 17.1527 9.0978 17.1527 9.29492C17.1527 9.49205 17.1138 9.68724 17.0383 9.86933C16.9629 10.0513 16.8523 10.2167 16.7129 10.356C16.7129 10.356 16.713 10.3559 16.7129 10.356L16.6853 10.3836C16.6408 10.4298 16.6108 10.4881 16.5994 10.5513C16.5878 10.6152 16.5956 10.6811 16.6218 10.7405C16.636 10.7726 16.6466 10.8059 16.6538 10.84C16.6774 10.8748 16.7078 10.9049 16.7432 10.9284C16.7959 10.9633 16.8575 10.982 16.9206 10.9824H17.0044C17.4022 10.9824 17.7838 11.1405 18.0651 11.4218C18.3464 11.7031 18.5044 12.0846 18.5044 12.4824C18.5044 12.8802 18.3464 13.2618 18.0651 13.5431C17.7838 13.8244 17.4022 13.9824 17.0044 13.9824H16.9606C16.8975 13.9828 16.8359 14.0016 16.7832 14.0364C16.7304 14.0714 16.6889 14.1211 16.664 14.1794L16.6619 14.1843C16.6356 14.2437 16.6278 14.3096 16.6394 14.3735C16.6508 14.4367 16.6807 14.4951 16.7253 14.5413L16.7528 14.5687C16.7527 14.5686 16.7528 14.5687 16.7528 14.5687C16.8921 14.7079 17.0029 14.8735 17.0783 15.0555C17.1538 15.2376 17.1927 15.4328 17.1927 15.6299C17.1927 15.827 17.1538 16.0222 17.0783 16.2043C17.0029 16.3864 16.8922 16.5519 16.7528 16.6912L16.3994 16.3374L16.7531 16.6908C16.6138 16.8302 16.4484 16.9409 16.2663 17.0164C16.0842 17.0919 15.889 17.1307 15.6919 17.1307C15.4948 17.1307 15.2996 17.0919 15.1175 17.0164C14.9355 16.9409 14.7701 16.8303 14.6308 16.691C14.6308 16.6909 14.6309 16.691 14.6308 16.691L14.6032 16.6634C14.557 16.6188 14.4987 16.5889 14.4355 16.5774C14.3716 16.5658 14.3057 16.5736 14.2463 16.5999L14.2414 16.602C14.1831 16.627 14.1334 16.6684 14.0984 16.7213C14.0636 16.7739 14.0448 16.8355 14.0444 16.8987V16.9824C14.0444 17.3802 13.8864 17.7618 13.6051 18.0431C13.3238 18.3244 12.9422 18.4824 12.5444 18.4824C12.1466 18.4824 11.765 18.3244 11.4837 18.0431C11.2024 17.7618 11.0444 17.3802 11.0444 16.9824V16.9446C11.042 16.881 11.021 16.8195 10.984 16.7676C10.946 16.7146 10.893 16.6742 10.8318 16.6517C10.8219 16.6481 10.8121 16.6441 10.8025 16.6399C10.7431 16.6136 10.6772 16.6058 10.6133 16.6174C10.5501 16.6289 10.4917 16.6588 10.4455 16.7034L10.4181 16.7308C10.4181 16.7308 10.4182 16.7307 10.4181 16.7308C10.2789 16.8702 10.1133 16.9809 9.9313 17.0564C9.74921 17.1319 9.55402 17.1707 9.35689 17.1707C9.15977 17.1707 8.96458 17.1319 8.78248 17.0564C8.60056 16.981 8.43527 16.8705 8.29604 16.7312C8.15657 16.5919 8.04593 16.4264 7.97045 16.2443C7.89496 16.0622 7.85611 15.867 7.85611 15.6699C7.85611 15.4728 7.89496 15.2776 7.97045 15.0955C8.04593 14.9134 8.15657 14.748 8.29604 14.6087L8.32345 14.5813C8.36804 14.5351 8.39796 14.4767 8.40942 14.4135C8.421 14.3496 8.41318 14.2837 8.38696 14.2243L8.3848 14.2194C8.35983 14.1611 8.3184 14.1114 8.26555 14.0764C8.21291 14.0416 8.15127 14.0228 8.08814 14.0224H8.00439C7.60657 14.0224 7.22504 13.8644 6.94373 13.5831C6.66243 13.3018 6.50439 12.9202 6.50439 12.5224C6.50439 12.1246 6.66243 11.7431 6.94373 11.4618C7.22504 11.1805 7.60657 11.0224 8.00439 11.0224H8.04221C8.10581 11.0201 8.16735 10.9991 8.21917 10.962C8.27221 10.9241 8.31262 10.871 8.33513 10.8098C8.33876 10.7999 8.34271 10.7902 8.34696 10.7805C8.37318 10.7211 8.381 10.6552 8.36942 10.5913C8.35796 10.5281 8.32803 10.4698 8.28344 10.4236L8.25604 10.3962C8.11657 10.2569 8.00593 10.0914 7.93045 9.90933C7.85496 9.72724 7.81611 9.53205 7.81611 9.33492C7.81611 9.1378 7.85496 8.94261 7.93045 8.76051C8.0059 8.5785 8.11647 8.41314 8.25584 8.27387C8.39511 8.1345 8.56047 8.02393 8.74248 7.94848C8.92458 7.87299 9.11977 7.83414 9.31689 7.83414C9.51402 7.83414 9.70921 7.87299 9.8913 7.94848C10.0734 8.02396 10.2388 8.1346 10.3781 8.27407L10.4055 8.30147C10.4517 8.34606 10.5101 8.37599 10.5733 8.38745C10.6372 8.39903 10.7031 8.39121 10.7625 8.36499C10.7945 8.35086 10.8279 8.34017 10.8619 8.33303C10.8968 8.30937 10.9269 8.27904 10.9504 8.24358C10.9852 8.19094 11.004 8.12929 11.0044 8.06617V7.98242C11.0044 7.5846 11.1624 7.20307 11.4437 6.92176Z" fill="#0090A1"/>
</g>
<defs>
<clipPath id="clip0_0_43479">
<rect width="12" height="12" fill="white" transform="translate(6.50439 6.48242)"/>
</clipPath>
</defs>
</svg>
