<svg width="74" height="75" viewBox="0 0 74 75" fill="none" xmlns="http://www.w3.org/2000/svg">
<mask id="mask0_0_43718" style="mask-type:luminance" maskUnits="userSpaceOnUse" x="-1" y="0" width="75" height="75">
<path d="M63.1627 63.245C77.6121 48.7956 77.6121 25.3685 63.1627 10.9191C48.7133 -3.53032 25.2862 -3.53032 10.8368 10.9191C-3.61256 25.3685 -3.61256 48.7956 10.8368 63.245C25.2862 77.6944 48.7133 77.6944 63.1627 63.245Z" fill="white"/>
</mask>
<g mask="url(#mask0_0_43718)">
<path d="M64.5252 118.708L63.8466 60.9572C63.8466 54.4776 55.6691 48.6719 48.235 48.6719H25.1535C17.7171 48.6719 9.542 54.4776 9.542 60.9572L9.47485 117.842L19.3645 117.823C19.3645 117.823 18.1559 65.2426 19.1871 65.2426C20.9665 65.2426 20.0696 111.082 20.0696 111.082H53.3238C53.3238 111.082 52.4269 65.2426 54.2063 65.2426C55.2374 65.2426 54.6379 118.691 54.6379 118.691L64.5276 118.71L64.5252 118.708Z" fill="#4FC5D6"/>
<path d="M42.5756 38.0254H30.1127C30.1127 38.0254 31.1175 46.5961 31.4197 46.6801L36.7794 58.2292L42.1391 46.6801C42.3669 46.6153 42.5732 38.0254 42.5732 38.0254H42.5756Z" fill="#EBB983"/>
<path d="M46.6691 31.2247C46.6691 33.2367 47.9137 34.8674 49.4509 34.8674C50.9881 34.8674 52.2327 33.2367 52.2327 31.2247C52.2327 29.2127 50.9881 27.582 49.4509 27.582C47.9137 27.582 46.6691 29.2127 46.6691 31.2247Z" fill="#FCC78D"/>
<path d="M24.024 34.8674C25.5604 34.8674 26.8058 33.2365 26.8058 31.2247C26.8058 29.2129 25.5604 27.582 24.024 27.582C22.4877 27.582 21.2422 29.2129 21.2422 31.2247C21.2422 33.2365 22.4877 34.8674 24.024 34.8674Z" fill="#FCC78D"/>
<path d="M50.566 26.0656C50.566 30.351 46.5923 41.0393 46.5923 41.0393C46.5923 41.0393 39.4533 45.4038 36.7362 45.3822C34.1847 45.363 27.5612 41.164 27.5612 41.164C27.5612 41.164 22.9065 30.4685 22.9065 26.0656C22.9065 16.9817 29.0983 9.61719 36.7362 9.61719C44.3741 9.61719 50.566 16.9817 50.566 26.0656Z" fill="#FCC78D"/>
<path d="M31.482 28.0175C31.482 28.557 31.0887 28.9959 30.6043 28.9959C30.1199 28.9959 29.7266 28.557 29.7266 28.0175C29.7266 27.4779 30.1199 27.0391 30.6043 27.0391C31.0887 27.0391 31.482 27.4779 31.482 28.0175Z" fill="#414042"/>
<path d="M31.5276 35.7969C31.9497 38.3269 34.0959 40.2525 36.6907 40.2525C39.2854 40.2525 41.4317 38.3245 41.8537 35.7969H31.5276Z" fill="white"/>
<g style="mix-blend-mode:multiply" opacity="0.2">
<path d="M52.5976 22.3049C52.5976 15.7605 47.4034 10.2809 40.4201 8.83007C39.2379 8.58546 38.0053 8.45117 36.7367 8.45117C35.2451 8.45117 33.8038 8.63582 32.4369 8.97156C25.7679 10.6094 20.8782 15.9572 20.8782 22.3073C20.8782 22.7126 20.9022 23.1154 20.9405 23.5111L20.8782 28.9212L24.5089 33.5351L24.0269 24.8876C27.7823 25.5807 44.6647 5.85885 49.2906 26.6934C49.3026 26.7461 49.058 33.4248 49.058 33.4248L52.5976 28.9212L52.5353 23.5279C52.576 23.125 52.5976 22.7198 52.5976 22.3073V22.3049Z" fill="#58595B"/>
</g>
<path d="M52.5976 21.9416C52.5976 15.3972 47.4034 9.91763 40.4201 8.46679C39.2379 8.21978 38.0053 8.08789 36.7367 8.08789C35.2451 8.08789 33.8038 8.27254 32.4369 8.60827C25.7679 10.2462 20.8782 15.5939 20.8782 21.944C20.8782 22.3493 20.9022 22.7522 20.9405 23.1478L20.8782 28.5579L24.5089 33.1718L24.0269 24.5243C27.7823 25.2174 44.6647 5.49556 49.2906 26.3301C49.3026 26.3829 49.058 33.0615 49.058 33.0615L52.5976 28.5579L52.5353 23.1646C52.576 22.7618 52.5976 22.3565 52.5976 21.944V21.9416Z" fill="#523131"/>
<path d="M43.7674 28.0175C43.7674 28.557 43.3741 28.9959 42.8897 28.9959C42.4053 28.9959 42.012 28.557 42.012 28.0175C42.012 27.4779 42.4053 27.0391 42.8897 27.0391C43.3741 27.0391 43.7674 27.4779 43.7674 28.0175Z" fill="#414042"/>
<path opacity="0.3" d="M30.765 33.0077C30.765 33.9957 29.5828 34.7943 28.1247 34.7943C26.6667 34.7943 25.4844 33.9933 25.4844 33.0077C25.4844 32.0221 26.6667 31.2188 28.1247 31.2188C29.5828 31.2188 30.765 32.0197 30.765 33.0077Z" fill="#E692B3"/>
<path opacity="0.3" d="M48.0093 33.0077C48.0093 33.9957 46.8271 34.7943 45.3691 34.7943C43.911 34.7943 42.7288 33.9933 42.7288 33.0077C42.7288 32.0221 43.911 31.2188 45.3691 31.2188C46.8271 31.2188 48.0093 32.0197 48.0093 33.0077Z" fill="#E692B3"/>
<g style="mix-blend-mode:multiply" opacity="0.2">
<path d="M48.9206 25.289C48.9086 25.0012 47.0453 24.9341 46.8726 24.9221C46.441 24.8909 46.0093 24.8549 45.5753 24.8285C43.0045 24.6631 40.4913 25.0036 38.0117 25.6631C37.628 25.7638 37.2491 25.8046 36.8702 25.8022C36.4913 25.8022 36.1124 25.7638 35.7287 25.6631C33.2491 25.006 30.7359 24.6655 28.1652 24.8285C27.7335 24.8573 27.3019 24.8909 26.8678 24.9221C26.6928 24.9341 24.8318 25.0012 24.8199 25.289C24.7959 25.8285 25.1196 29.3585 25.4793 30.3849C26.6952 33.8501 30.1268 33.4832 31.911 33.0708C32.9757 32.8238 33.7815 32.229 34.5177 31.3921C35.2731 30.5336 35.899 28.2266 36.3259 28.0516C36.5129 27.9748 36.6976 27.9389 36.8702 27.9365C37.0429 27.9365 37.2251 27.9748 37.4146 28.0516C37.8414 28.2266 38.4673 30.5312 39.2227 31.3921C39.9589 32.229 40.7647 32.8238 41.8294 33.0708C43.6136 33.4856 47.0453 33.8501 48.2611 30.3849C48.6208 29.3561 48.9446 25.8285 48.9206 25.289ZM34.923 27.8669C34.8558 28.9485 34.5681 29.9844 33.9518 30.8981C33.1988 32.0204 32.0621 32.4592 30.7863 32.5096C29.7623 32.5504 27.441 32.7398 26.3954 30.3897C26.0765 29.6751 26.0501 27.3705 26.11 27.0108C26.2443 26.2266 26.1484 25.042 31.592 25.723C34.2299 26.054 34.9757 26.9796 34.9206 27.8669H34.923ZM47.345 30.3897C46.2995 32.7374 43.9781 32.548 42.9541 32.5096C41.6784 32.4592 40.5417 32.0204 39.7887 30.8981C39.1748 29.9844 38.8846 28.9485 38.8175 27.8669C38.7623 26.982 39.5081 26.054 42.146 25.723C47.592 25.042 47.4961 26.2266 47.628 27.0108C47.6904 27.3705 47.6616 29.6751 47.3426 30.3897H47.345Z" fill="#58595B"/>
</g>
<path d="M48.7389 25.1073C48.7269 24.8196 46.8636 24.7524 46.691 24.7404C46.2593 24.7093 45.8277 24.6733 45.3936 24.6469C42.8229 24.4814 40.3097 24.822 37.8301 25.4814C37.4464 25.5822 37.0675 25.6229 36.6886 25.6205C36.3097 25.6205 35.9308 25.5822 35.5471 25.4814C33.0675 24.8244 30.5543 24.4838 27.9835 24.6469C27.5519 24.6757 27.1202 24.7093 26.6862 24.7404C26.5111 24.7524 24.6502 24.8196 24.6382 25.1073C24.6142 25.6469 24.938 29.1769 25.2977 30.2033C26.5135 33.6685 29.9452 33.3016 31.7293 32.8891C32.7941 32.6421 33.5998 32.0474 34.3361 31.2105C35.0915 30.3519 35.7174 28.045 36.1442 27.8699C36.3313 27.7932 36.5159 27.7572 36.6886 27.7548C36.8612 27.7548 37.0435 27.7932 37.2329 27.8699C37.6598 28.045 38.2857 30.3495 39.0411 31.2105C39.7773 32.0474 40.5831 32.6421 41.6478 32.8891C43.432 33.304 46.8636 33.6685 48.0795 30.2033C48.4392 29.1745 48.7629 25.6469 48.7389 25.1073ZM34.7413 27.6853C34.6742 28.7668 34.3864 29.8028 33.7701 30.7165C33.0171 31.8388 31.8804 32.2776 30.6046 32.328C29.5807 32.3687 27.2593 32.5582 26.2138 30.2081C25.8948 29.4934 25.8684 27.1889 25.9284 26.8292C26.0627 26.045 25.9668 24.8603 31.4104 25.5414C34.0483 25.8723 34.7941 26.798 34.7389 27.6853H34.7413ZM47.1634 30.2081C46.1178 32.5558 43.7965 32.3663 42.7725 32.328C41.4967 32.2776 40.36 31.8388 39.607 30.7165C38.9931 29.8028 38.703 28.7668 38.6358 27.6853C38.5807 26.8004 39.3265 25.8723 41.9644 25.5414C47.4104 24.8603 47.3145 26.045 47.4464 26.8292C47.5087 27.1889 47.4799 29.4934 47.161 30.2081H47.1634Z" fill="#262526"/>
<g style="mix-blend-mode:overlay" opacity="0.3">
<path d="M40.4197 8.46679C39.2375 8.21978 38.0048 8.08789 36.7363 8.08789C35.2447 8.08789 33.8034 8.27254 32.4365 8.60827C25.7674 10.2462 20.8777 15.5939 20.8777 21.944C20.8777 22.3493 20.9017 22.7522 20.9401 23.1478L20.8777 28.5579C20.8777 28.5579 20.0672 16.3877 31.7219 12.9896C42.7746 9.76655 47.4029 9.92003 40.4221 8.46919L40.4197 8.46679Z" fill="white"/>
</g>
<g style="mix-blend-mode:overlay" opacity="0.4">
<path d="M25.7554 9.98681C24.1367 11.2842 22.7458 12.8453 21.6403 14.6007C21.5204 14.7926 21.2662 14.8573 21.0744 14.7422C20.8801 14.6271 20.8226 14.3657 20.9497 14.1667C22.1031 12.3345 23.5564 10.7062 25.2446 9.35132C25.4293 9.20264 25.6955 9.23142 25.8322 9.41128C25.9689 9.59113 25.9329 9.84773 25.7554 9.98921V9.98681Z" fill="white"/>
</g>
<path d="M40.9281 51.8014C41.2302 51.2523 40.8202 50.5808 40.1943 50.6C40.1943 50.6 38.6907 50.6624 36.9209 50.7607C35.1511 50.6624 33.6475 50.6 33.6475 50.6C33.0192 50.5808 32.6115 51.2523 32.9137 51.8014L35.6835 56.835C35.765 56.9861 35.7986 57.1564 35.777 57.3266L33.2302 77.5353C33.2134 77.6624 33.2302 77.7919 33.271 77.9118L36.259 86.2283C36.3669 86.5281 36.6115 86.7031 36.8777 86.7487V86.7607C36.8921 86.7607 36.9065 86.7559 36.9209 86.7559C36.9353 86.7559 36.9497 86.7607 36.964 86.7607V86.7487C37.2302 86.7007 37.4748 86.5281 37.5827 86.2283L40.5708 77.9118C40.6139 77.7919 40.6283 77.6624 40.6115 77.5353L38.0648 57.3266C38.0432 57.1564 38.0768 56.9837 38.1583 56.835L40.9281 51.8014Z" fill="#414042"/>
<path d="M31.0429 44.7188L36.8774 50.7379L31.9182 59.3614L27.8342 48.7859L31.0429 44.7188Z" fill="#0090A1"/>
<path d="M42.8582 44.7188L37.0237 50.7379L41.9829 59.3614L46.0668 48.7859L42.8582 44.7188Z" fill="#0090A1"/>
<g style="mix-blend-mode:overlay" opacity="0.3">
<path d="M10.8178 61.6857C10.8178 55.206 18.9952 49.4003 26.4293 49.4003H29.2015L32.2806 45.4962C32.1991 44.9686 32.1127 44.3739 32.0264 43.7576C31.5732 43.5106 31.1439 43.2684 30.753 43.043C30.837 43.6545 30.9233 44.2444 31.0048 44.7672L27.9257 48.6713H25.1535C17.7171 48.6713 9.542 54.477 9.542 60.9566L9.47485 117.842H10.7506L10.8178 61.6833V61.6857Z" fill="white"/>
</g>
<g style="mix-blend-mode:overlay" opacity="0.3">
<path d="M24.2542 28.7305L23.8897 31.4619C25.2326 36.2461 27.5612 41.1645 27.5612 41.1645C27.5612 41.1645 28.753 41.9199 30.319 42.7904C29.4245 42.2652 28.8346 41.8935 28.8346 41.8935C28.8346 41.8935 25.5324 33.6441 24.2518 28.7305H24.2542Z" fill="white"/>
</g>
<g style="mix-blend-mode:multiply" opacity="0.2">
<path d="M32.5705 39.2681H30.628C30.2827 39.2681 29.9781 39.4383 29.7911 39.6997C27.9661 39.0762 25.5848 37.9419 25.2347 37.5391L24.7335 38.2441C25.8127 38.8652 27.839 39.9252 29.6184 40.5127C29.7167 40.9803 30.1316 41.3328 30.628 41.3328H32.5705C33.1412 41.3328 33.6016 40.87 33.6016 40.3017C33.6016 39.7309 33.1388 39.2705 32.5705 39.2705V39.2681Z" fill="#58595B"/>
</g>
<path d="M25.0501 37.3555C25.5058 37.8783 29.3739 39.6312 31.0166 39.9046C31.7936 40.0341 32.9063 41.0365 30.8103 40.6864C28.8295 40.3555 25.9231 38.8519 24.549 38.0605L25.0501 37.3555Z" fill="#414042"/>
<path d="M32.3878 41.1483H30.4454C29.8746 41.1483 29.4142 40.6855 29.4142 40.1171C29.4142 39.5464 29.877 39.0859 30.4454 39.0859H32.3878C32.9585 39.0859 33.419 39.5488 33.419 40.1171C33.419 40.6879 32.9561 41.1483 32.3878 41.1483Z" fill="#262526"/>
<path d="M19.1844 23.4058C19.1939 23.8495 19.3139 25.8327 19.3522 26.3003C19.4457 27.4754 19.5489 28.7583 19.8294 30.0797C19.9925 30.8495 20.345 32.3291 20.1148 32.3938C19.887 32.461 19.369 32.3051 19.0309 30.2068C18.7239 28.2955 18.6016 24.9694 18.5441 23.3555L19.1844 23.4034V23.4058Z" fill="#262526"/>
<path d="M20.5661 30.7775L20.7507 30.7344L22.2471 37.2572L22.0625 37.3003C20.9786 37.5497 19.9354 37.0341 19.734 36.1492L18.9714 32.8279C18.7675 31.943 19.4822 31.0245 20.5661 30.7775Z" fill="#414042"/>
<path d="M22.3282 38.1092C22.5585 39.114 23.6112 39.7279 24.6784 39.4833C25.7455 39.2387 26.4218 38.2243 26.1915 37.2219L24.1748 28.4473C23.9445 27.4425 22.8918 26.8286 21.8246 27.0732C20.7575 27.3178 20.0812 28.3322 20.3114 29.3346L22.3282 38.1092Z" fill="#262526"/>
<path d="M54.9185 23.4058C54.9089 23.8495 54.789 25.8327 54.7506 26.3003C54.6571 27.4754 54.554 28.7583 54.2734 30.0797C54.1103 30.8495 53.7578 32.3291 53.988 32.3938C54.2158 32.461 54.7338 32.3051 55.0719 30.2068C55.3789 28.2955 55.5012 24.9694 55.5588 23.3555L54.9185 23.4034V23.4058Z" fill="#262526"/>
<path d="M53.5376 30.7775L53.353 30.7344L51.8566 37.2572L52.0412 37.3003C53.1251 37.5497 54.1683 37.0341 54.3698 36.1492L55.1323 32.8279C55.3362 31.943 54.6216 31.0245 53.5376 30.7775Z" fill="#414042"/>
<path d="M51.7727 38.1092C51.5424 39.114 50.4897 39.7279 49.4225 39.4833C48.3554 39.2387 47.6791 38.2243 47.9093 37.2219L49.9261 28.4473C50.1564 27.4425 51.2091 26.8286 52.2763 27.0732C53.3434 27.3178 54.0197 28.3322 53.7894 29.3346L51.7727 38.1092Z" fill="#262526"/>
<path d="M55.295 24.4374C54.8634 24.435 54.5444 23.965 54.5228 23.2959C54.1343 11.8283 45.2039 6.60766 37.0696 6.60766C28.9353 6.60766 20.0072 11.8307 19.6164 23.2959C19.5924 23.965 19.2758 24.4326 18.8418 24.4374C18.7243 24.4374 18.5564 24.4038 18.4005 24.2407C18.1919 24.0249 18.0768 23.6484 18.0912 23.236C18.5156 10.7611 28.2255 5.08008 37.0696 5.08008C45.9137 5.08008 55.6236 10.7611 56.048 23.236C56.0624 23.6484 55.9473 24.0249 55.7387 24.2407C55.5828 24.4038 55.4149 24.4374 55.3022 24.4374H55.2974H55.295Z" fill="#414042"/>
</g>
</svg>
