<svg width="75" height="75" viewBox="0 0 75 75" fill="none" xmlns="http://www.w3.org/2000/svg">
<g clip-path="url(#clip0_0_43767)">
<path d="M38.8417 41.4857C38.8417 41.4857 39.3458 46.593 43.5246 47.8593C47.7033 49.1271 49.9605 48.3204 52.4444 45.6706C52.4444 45.6706 51.7671 50.8545 48.9445 52.8134C48.9445 52.8134 55.6072 51.9864 57.7525 44.9124C57.7525 44.9124 64.1884 44.4419 64.5271 38.3747C64.5271 38.3747 70.7377 36.2236 71.5284 30.4644C72.3191 24.7052 69.6084 22.9762 65.9951 20.7876C65.9951 20.7876 67.4432 17.4827 63.3441 14.1998C60.4709 12.4802 57.0737 14.3358 57.0737 14.3358C57.0737 14.3358 55.4923 8.69074 47.8136 8.46094C45.4431 8.46094 41.649 10.8794 41.2873 13.5292C41.2873 13.5292 36.7807 10.7637 32.6433 13.759C28.5044 16.7543 29.6966 22.2836 31.0772 24.8178C31.0772 24.8178 26.6456 29.195 29.0438 35.4154C31.4404 41.6358 38.8401 41.4825 38.8401 41.4825L38.8417 41.4857Z" fill="#7CDCEA"/>
<path d="M51.3644 34.7193H45.7453V34.1456C45.7453 33.1701 45.8541 32.3775 46.0701 31.7694C46.2862 31.1612 46.6095 30.6047 47.0386 30.1029C47.4676 29.5995 48.4315 28.7147 49.9301 27.4468C50.7285 26.7824 51.1284 26.1743 51.1284 25.6209C51.1284 25.0675 50.9675 24.6376 50.6473 24.3312C50.327 24.0248 49.8413 23.8716 49.19 23.8716C48.4897 23.8716 47.9105 24.1076 47.4523 24.5813C46.9941 25.0534 46.6999 25.8788 46.5727 27.056L40.8341 26.3322C41.0317 24.1795 41.7979 22.4474 43.1341 21.1342C44.4703 19.821 46.5176 19.166 49.2789 19.166C51.4288 19.166 53.1634 19.6241 54.4843 20.5386C56.2787 21.7752 57.1751 23.426 57.1751 25.4864C57.1751 26.3416 56.9438 27.167 56.4794 27.9612C56.0167 28.7553 55.0697 29.7261 53.64 30.8736C52.6439 31.6787 52.0157 32.3243 51.7552 32.8121C51.4931 33.2998 51.3629 33.9361 51.3629 34.7209L51.3644 34.7193ZM48.2078 36.2435H48.9172C50.3837 36.2435 51.5713 37.4566 51.5713 38.9512C51.5713 40.4472 50.3822 41.6588 48.9172 41.6588H48.2078C46.7413 41.6588 45.5537 40.4457 45.5537 38.9512C45.5537 37.4551 46.7428 36.2435 48.2078 36.2435Z" fill="white"/>
<path d="M32.0801 62.5C32.0801 62.5 27.8063 62.5 24.4351 62.5C21.064 62.5 20.6042 64.2822 22.4431 64.5245C24.2819 64.7668 28.1128 65.9393 26.274 66.4864C24.4351 67.0336 24.0521 68.8314 27.0402 68.9095C30.0283 68.9877 45.122 69.0659 47.5738 68.9095C50.0256 68.7532 48.7675 66.6427 45.7962 66.7209C42.825 66.7991 44.1965 65.7939 48.8732 65.7501C53.55 65.7048 56.9212 63.0034 51.4047 62.8299C45.8882 62.6563 32.0801 62.5 32.0801 62.5Z" fill="#CDF9FF"/>
<path d="M33.3298 64.217C33.3298 64.217 31.9967 63.909 31.4328 64.217C30.8689 64.5249 31.3102 65.8209 34.3075 65.3644L33.3298 64.217Z" fill="#473A51"/>
<path d="M40.3763 64.217C40.3763 64.217 41.7094 63.909 42.2733 64.217C42.8372 64.5249 42.3959 65.8209 39.3986 65.3644L40.3763 64.217Z" fill="#473A51"/>
<path d="M31.3577 61.3352C31.3577 61.3352 30.0399 61.0272 30.2667 62.6796C30.4919 63.7552 34.3075 65.3638 34.3075 65.3638V62.1231L31.3577 61.3352Z" fill="#33565A"/>
<path d="M36.0627 54.0562V55.0036C36.0627 55.0036 36.7921 55.9415 37.6594 55.0036V54.0562C37.6594 54.0562 36.5914 53.0948 36.0627 54.0562Z" fill="#ECA87B"/>
<path d="M42.5935 61.3352C42.5935 61.3352 43.9114 61.0272 43.6846 62.6796C43.4593 63.7552 39.6437 65.3638 39.6437 65.3638V62.1231L42.5935 61.3352Z" fill="#33565A"/>
<path d="M39.5304 55.5004L38.2555 55.0173C37.379 54.6843 36.4136 54.6843 35.5355 55.0173L34.2606 55.5004C34.2606 55.5004 32.4157 56.5368 33.922 61.8755C33.922 61.8755 34.8261 62.6822 36.8947 62.6822C38.9634 62.6822 39.8691 61.8755 39.8691 61.8755C41.3754 56.5384 39.5304 55.5004 39.5304 55.5004Z" fill="#0090A1"/>
<path d="M36.0092 48.5621C36.0092 48.5621 35.0821 48.2839 34.6454 48.8967C34.2086 49.5095 34.6454 50.3162 34.6454 50.3162C34.6454 50.3162 33.9635 50.4553 33.8547 51.3182C33.7459 52.1812 34.3726 52.4594 34.3726 52.4594C34.3726 52.4594 33.9911 53.0723 34.4278 53.7398C34.7005 54.1291 35.6016 53.7398 35.6016 53.7398C35.6016 53.7398 35.6291 54.1009 36.0107 54.2401C36.3923 54.3792 36.7478 53.9336 36.7478 53.9336C36.7478 53.9336 37.2121 54.5715 38.1392 54.2666C39.0662 53.9618 38.9298 53.1817 38.9298 53.1817C38.9298 53.1817 39.6118 53.3208 39.9397 52.7643C40.2676 52.2078 39.6945 51.5402 39.6945 51.5402C39.6945 51.5402 40.0761 50.7883 39.6945 49.9535C39.3129 49.1187 38.7123 49.4251 38.7123 49.4251C38.7123 49.4251 38.7935 48.6184 38.3031 48.3401C37.8128 48.0619 37.2397 48.7013 37.2397 48.7013C37.2397 48.7013 37.2672 47.8852 36.6666 47.8946C36.0322 47.904 36.0122 48.5621 36.0122 48.5621H36.0092Z" fill="#4F3B4D"/>
<path d="M33.9216 61.873C33.9216 61.873 33.7378 63.6396 33.9216 64.7917C34.1055 65.9439 36.853 66.0596 38.1709 65.9814C39.4887 65.9048 40.4388 65.367 39.8687 61.873C39.8687 61.873 36.9389 63.391 33.9216 61.873Z" fill="#597C81"/>
<path d="M34.197 57.7871C34.2399 58.1498 34.2752 58.514 34.3089 58.8767L34.4024 59.9679L34.4805 61.0607C34.5035 61.4249 34.5265 61.7892 34.5388 62.155C34.479 61.7938 34.433 61.4312 34.3916 61.0685C34.3503 60.7058 34.3196 60.3415 34.2859 59.9773C34.2614 59.613 34.2338 59.2488 34.2185 58.883C34.2032 58.5172 34.1909 58.1529 34.1955 57.7871H34.197Z" fill="#5858BC"/>
<path d="M39.5699 57.7773C39.5745 58.1432 39.5623 58.509 39.5469 58.8732C39.5316 59.239 39.504 59.6033 39.4795 59.9675C39.4458 60.3318 39.4167 60.696 39.3738 61.0587C39.3324 61.4214 39.2864 61.7841 39.2267 62.1452C39.2389 61.7794 39.2619 61.4151 39.2849 61.0509L39.363 59.9582L39.4565 58.867C39.4902 58.5043 39.5255 58.14 39.5684 57.7773H39.5699Z" fill="#5858BC"/>
<path d="M20.7062 66.9286C21.5804 66.9286 22.2891 66.7207 22.2891 66.4643C22.2891 66.2079 21.5804 66 20.7062 66C19.8319 66 19.1232 66.2079 19.1232 66.4643C19.1232 66.7207 19.8319 66.9286 20.7062 66.9286Z" fill="#CDF9FF"/>
<path d="M56.9469 66.0001C58.0894 66.0001 59.0156 65.788 59.0156 65.5264C59.0156 65.2648 58.0894 65.0527 56.9469 65.0527C55.8044 65.0527 54.8782 65.2648 54.8782 65.5264C54.8782 65.788 55.8044 66.0001 56.9469 66.0001Z" fill="#CDF9FF"/>
<path d="M52.3253 68.0743C52.3253 68.1603 52.028 68.2306 51.6618 68.2306C51.2955 68.2306 50.9983 68.1603 50.9983 68.0743C50.9983 67.9883 51.2955 67.918 51.6618 67.918C52.028 67.918 52.3253 67.9883 52.3253 68.0743Z" fill="#CDF9FF"/>
<path d="M17.8982 63.3404C18.3214 63.3404 18.6644 63.269 18.6644 63.1809C18.6644 63.0929 18.3214 63.0215 17.8982 63.0215C17.4751 63.0215 17.132 63.0929 17.132 63.1809C17.132 63.269 17.4751 63.3404 17.8982 63.3404Z" fill="#CDF9FF"/>
<path d="M16.5692 66.6982C16.5692 66.8264 16.2826 66.9295 15.9302 66.9295C15.5778 66.9295 15.2912 66.8264 15.2912 66.6982C15.2912 66.57 15.5778 66.4668 15.9302 66.4668C16.2826 66.4668 16.5692 66.57 16.5692 66.6982Z" fill="#CDF9FF"/>
<path d="M8.61434 14.204C9.05865 14.204 9.41883 13.8365 9.41883 13.3832C9.41883 12.93 9.05865 12.5625 8.61434 12.5625C8.17003 12.5625 7.80985 12.93 7.80985 13.3832C7.80985 13.8365 8.17003 14.204 8.61434 14.204Z" fill="#E8E8F7"/>
<path d="M28.9748 8.1259C29.6544 8.1259 30.2053 7.56387 30.2053 6.87057C30.2053 6.17727 29.6544 5.61523 28.9748 5.61523C28.2952 5.61523 27.7443 6.17727 27.7443 6.87057C27.7443 7.56387 28.2952 8.1259 28.9748 8.1259Z" fill="#E8E8F7"/>
<path d="M32.7245 44.9139C33.2653 44.9139 33.7037 44.4667 33.7037 43.915C33.7037 43.3633 33.2653 42.916 32.7245 42.916C32.1837 42.916 31.7453 43.3633 31.7453 43.915C31.7453 44.4667 32.1837 44.9139 32.7245 44.9139Z" fill="#CDF9FF"/>
<path d="M63.0518 51.5903C63.3057 51.5903 63.5115 51.3804 63.5115 51.1213C63.5115 50.8623 63.3057 50.6523 63.0518 50.6523C62.7979 50.6523 62.5921 50.8623 62.5921 51.1213C62.5921 51.3804 62.7979 51.5903 63.0518 51.5903Z" fill="#E8E8F7"/>
<path d="M15.8961 51.837C15.8961 52.1763 15.6264 52.4514 15.2939 52.4514C14.9614 52.4514 14.6917 52.1763 14.6917 51.837C14.6917 51.4978 14.9614 51.2227 15.2939 51.2227C15.6264 51.2227 15.8961 51.4978 15.8961 51.837Z" fill="#CDF9FF"/>
<path d="M60.2212 5.61438C60.2212 5.95361 59.9515 6.22875 59.6189 6.22875C59.2864 6.22875 59.0167 5.95361 59.0167 5.61438C59.0167 5.27514 59.2864 5 59.6189 5C59.9515 5 60.2212 5.27514 60.2212 5.61438Z" fill="#E8E8F7"/>
<path d="M27.585 15.1858L8.19908 20.4526C4.94281 21.3359 3.00591 24.747 3.87322 28.069L7.41757 41.651C8.25271 44.8542 11.3895 46.8036 14.5323 46.1486C16.244 48.6358 19.3041 49.8427 18.99 49.3956C17.9587 47.9308 17.6032 46.4409 17.4974 45.356L34.2706 40.799C37.5269 39.9141 39.4638 36.5046 38.5965 33.181L35.0522 19.599C34.1848 16.277 30.8428 14.301 27.585 15.1858Z" fill="#4FC5D6"/>
<path d="M23.9701 34.2782L19.6902 35.5977L19.5615 35.1615C19.3409 34.4189 19.2459 33.7905 19.2734 33.2762C19.301 32.7618 19.4221 32.2631 19.6351 31.7785C19.8481 31.2955 20.3829 30.395 21.2379 29.0771C21.6961 28.3846 21.8631 27.8265 21.739 27.406C21.6149 26.9854 21.3958 26.6947 21.0816 26.5368C20.769 26.3789 20.3645 26.3757 19.868 26.5289C19.3347 26.6931 18.947 27.0089 18.7049 27.4763C18.4628 27.9437 18.4245 28.641 18.5931 29.5664L14.0603 30.3622C13.7248 28.6769 13.9178 27.1777 14.6396 25.8645C15.3613 24.5514 16.7726 23.5712 18.875 22.9224C20.5116 22.4175 21.9367 22.3596 23.1488 22.7458C24.7945 23.2663 25.8488 24.3122 26.3146 25.8833C26.5077 26.5352 26.5169 27.2168 26.3437 27.9312C26.1706 28.6457 25.668 29.6071 24.8374 30.8155C24.2613 31.6628 23.9272 32.3022 23.8383 32.7353C23.7495 33.1683 23.7939 33.6826 23.9701 34.2814V34.2782ZM21.9091 36.1792L22.45 36.0119C23.5671 35.668 24.7455 36.3121 25.0826 37.4517C25.4197 38.5914 24.7884 39.7936 23.6713 40.1375L23.1304 40.3048C22.0133 40.6487 20.8349 40.0046 20.4978 38.865C20.1607 37.7253 20.792 36.5231 21.9091 36.1792Z" fill="white"/>
</g>
<defs>
<clipPath id="clip0_0_43767">
<rect width="68" height="64" fill="white" transform="translate(3.66635 5)"/>
</clipPath>
</defs>
</svg>
