<svg width="75" height="75" viewBox="0 0 75 75" fill="none" xmlns="http://www.w3.org/2000/svg">
<g clip-path="url(#clip0_0_43807)">
<path d="M55.2056 25.13C53.9994 23.6124 52.6935 22.1853 51.0786 20.9692C42.4258 14.1752 30.2541 14.0747 21.6014 20.9692C20.0961 22.1853 18.6806 23.5018 17.4744 25.13C16.0688 26.9591 14.9623 28.9893 14.0551 31.1199C7.81476 46.8486 19.3883 64.0847 36.2951 64.0847C49.4736 64.0847 60.2397 53.331 60.2397 39.944C60.3394 34.7682 58.6348 29.4918 55.2056 25.13Z" fill="#95F2FF"/>
<path d="M51.1779 29.1899C50.0714 27.5618 48.6658 26.2452 47.0509 25.0291C40.8105 20.4663 32.1578 20.2653 25.6184 25.0291C24.0134 26.1447 22.6976 27.5618 21.4914 29.1899C12.7389 41.3608 21.4914 58.406 36.2848 58.406C46.3431 58.406 54.4975 50.1849 54.4975 40.0442C54.6968 36.0844 53.4906 32.4362 51.1779 29.1899Z" fill="#0090A1"/>
<path d="M47.1509 33.3416C46.1441 31.7134 44.7385 30.2963 43.0239 29.1807C38.9966 26.6481 33.9724 26.6481 29.7457 29.1807C28.1408 30.1958 26.7252 31.6129 25.6187 33.3416C24.3128 35.3717 23.7047 37.7034 23.7047 40.035C23.7047 47.03 29.337 52.7184 36.2851 52.7184C46.1441 52.7184 52.3845 41.8642 47.1509 33.3416Z" fill="#95F2FF"/>
<path d="M42.9245 37.8133C41.7183 34.1651 37.7907 32.2354 34.1721 33.4515C31.351 34.3661 29.447 36.9993 29.447 40.0445C29.447 43.8937 32.5671 47.0395 36.3851 47.0395C41.1102 46.939 44.4298 42.2756 42.9245 37.8133Z" fill="#0090A1"/>
<path d="M61.8451 54.5469C62.7522 54.5469 63.46 55.2604 63.46 56.165C63.46 57.0695 62.7522 57.7931 61.8451 57.7931C60.9379 57.7931 60.2302 57.0795 60.2302 56.165C60.3298 55.2504 61.0376 54.5469 61.8451 54.5469Z" fill="#C4EAFF"/>
<path d="M58.2349 13.8553L56.1696 15.9375L60.2227 20.0238L62.288 17.9416L58.2349 13.8553Z" fill="#475972"/>
<path d="M61.2757 10.8298L58.2165 13.9141L62.2696 18.0004L65.3288 14.9161L61.2757 10.8298Z" fill="#2D64BC"/>
<path d="M14.4542 59.0098C15.8597 59.0098 16.9663 60.1253 16.9663 61.5424C16.9663 62.9595 15.8597 64.0751 14.4542 64.0751C13.0486 64.0751 11.9421 62.9595 11.9421 61.5424C11.9421 60.1253 13.0486 59.0098 14.4542 59.0098Z" fill="#C4EAFF"/>
<path d="M50.5701 9C52.4642 9 53.9894 10.5477 53.9894 12.4472C53.9894 14.3467 52.4542 15.8945 50.5701 15.8945C48.6861 15.8945 47.1509 14.3467 47.1509 12.4472C47.1509 10.5477 48.6861 9 50.5701 9Z" fill="#C4EAFF"/>
<path d="M40.2128 36.1862L40.9106 39.6335L34.7799 41.6636L36.7935 35.4727L40.2128 36.1862Z" fill="#FDE09C"/>
<path d="M64.357 46.4375C64.8555 46.4375 65.2642 46.8496 65.2642 47.3521C65.2642 47.8546 64.8555 48.2666 64.357 48.2666C63.8586 48.2666 63.4499 47.8546 63.4499 47.3521C63.4499 46.8496 63.8586 46.4375 64.357 46.4375Z" fill="#6499F3"/>
<path d="M61.8443 28.5772C62.3453 28.5772 62.7515 28.1677 62.7515 27.6626C62.7515 27.1575 62.3453 26.748 61.8443 26.748C61.3433 26.748 60.9372 27.1575 60.9372 27.6626C60.9372 28.1677 61.3433 28.5772 61.8443 28.5772Z" fill="#6499F3"/>
<path d="M55.0064 64.6885C55.5075 64.6885 55.9136 64.2791 55.9136 63.7739C55.9136 63.2688 55.5075 62.8594 55.0064 62.8594C54.5054 62.8594 54.0993 63.2688 54.0993 63.7739C54.0993 64.2791 54.5054 64.6885 55.0064 64.6885Z" fill="#6499F3"/>
<path d="M25.7184 10.2168C26.2168 10.2168 26.6255 10.6289 26.6255 11.1314C26.6255 11.6339 26.2168 12.0459 25.7184 12.0459C25.22 12.0459 24.8112 11.6339 24.8112 11.1314C24.8112 10.6289 25.22 10.2168 25.7184 10.2168Z" fill="#6499F3"/>
<path d="M22.2994 63.1719C22.7978 63.1719 23.2066 63.5839 23.2066 64.0864C23.2066 64.589 22.7978 65.001 22.2994 65.001C21.801 65.001 21.3923 64.589 21.3923 64.0864C21.3923 63.5839 21.801 63.1719 22.2994 63.1719Z" fill="#6499F3"/>
<path d="M12.2408 19.7539C12.7393 19.7539 13.148 20.166 13.148 20.6685C13.148 21.171 12.7393 21.5831 12.2408 21.5831C11.7424 21.5831 11.3337 21.171 11.3337 20.6685C11.3337 20.166 11.7424 19.7539 12.2408 19.7539Z" fill="#6499F3"/>
<path d="M40.2128 36.1851L36.7935 35.4715L38.8072 33.4514L43.0239 29.1901L47.1509 25.1298L51.1782 21.0695L56.2124 15.9941L60.2297 20.0544L55.2056 25.1298L51.1782 29.1901L47.1509 33.3409L42.9242 37.6022L40.9106 39.6323L40.2128 36.1851Z" fill="#B2E164"/>
<path d="M51.9854 24.3168C51.786 24.1158 51.3773 24.1158 51.0782 24.3168L39.405 36.0856L40.1127 36.1861L40.3121 37.0002L51.9854 25.2313C52.1847 24.9298 52.1847 24.6183 51.9854 24.3168Z" fill="#3EB5AA"/>
</g>
<defs>
<clipPath id="clip0_0_43807">
<rect width="54" height="56" fill="white" transform="translate(11.3337 9)"/>
</clipPath>
</defs>
</svg>
