<svg width="12" height="12" viewBox="0 0 12 12" fill="none" xmlns="http://www.w3.org/2000/svg">
<g clip-path="url(#clip0_1257_36550)">
<path fill-rule="evenodd" clip-rule="evenodd" d="M7.46487 2H6.10515C5.57611 1.44333 4.82859 1.09627 4 1.09627C2.39632 1.09627 1.09627 2.39632 1.09627 4C1.09627 5.09819 1.70592 6.05399 2.60524 6.54743L2.18175 7.56381C0.88663 6.90172 0 5.5544 0 4C0 1.79086 1.79086 0 4 0C5.48056 0 6.77325 0.804397 7.46487 2Z" fill="black"/>
<path fill-rule="evenodd" clip-rule="evenodd" d="M9.00014 5.9999H10.8002V10.7999H6.00019V10.0001H5V12H12V5H8.62517L9.00014 5.9999Z" fill="black"/>
<path d="M7.40003 8.00005H4.59996L3.99994 9.60009H2.3999L5.19997 2.3999H6.80002L9.60009 9.60009H8.00005L7.40003 8.00005ZM4.99997 6.80002H7.00002L6 3.59993L4.99997 6.80002Z" fill="#FF0000"/>
</g>
<defs>
<clipPath id="clip0_1257_36550">
<rect width="12" height="12" fill="white"/>
</clipPath>
</defs>
</svg>
