<svg width="12" height="12" viewBox="0 0 12 12" fill="none" xmlns="http://www.w3.org/2000/svg">
<path id="Subtract" fill-rule="evenodd" clip-rule="evenodd" d="M0 3.375C0 1.71777 1.34326 0.375 3 0.375H8.25C9.90698 0.375 11.25 1.71777 11.25 3.375V8.625C11.25 10.2822 9.90698 11.625 8.25 11.625H3C1.34326 11.625 0 10.2822 0 8.625V3.375ZM2.75537 5.47656C2.46777 5.47656 2.23486 5.70898 2.23486 5.99707C2.23486 6.1582 2.30835 6.30273 2.42383 6.39844C2.51392 6.47266 2.62939 6.51758 2.75537 6.51758H5.09692V8.85938C5.09692 9.14648 5.33008 9.37891 5.61743 9.37891C5.90479 9.37891 6.13794 9.14648 6.13794 8.85938V6.51758H8.47949C8.60693 6.51758 8.72363 6.47168 8.81421 6.39551C8.92773 6.2998 9 6.15723 9 5.99707C9 5.70898 8.76709 5.47656 8.47949 5.47656H6.13794V3.13477C6.13794 2.84766 5.90479 2.61426 5.61743 2.61426C5.33008 2.61426 5.09692 2.84766 5.09692 3.13477V5.47656H2.75537Z" fill="#0090A1"/>
</svg>
