<svg width="16" height="16" viewBox="0 0 16 16" fill="none" xmlns="http://www.w3.org/2000/svg">
<g id="clarity:copy-line" clip-path="url(#clip0_0_28287)">
<path id="Vector" d="M13.1111 3.11133H4.66667C4.48986 3.11133 4.32029 3.18157 4.19526 3.30659C4.07024 3.43161 4 3.60118 4 3.77799V14.4447C4 14.6215 4.07024 14.791 4.19526 14.9161C4.32029 15.0411 4.48986 15.1113 4.66667 15.1113H13.1111C13.2879 15.1113 13.4575 15.0411 13.5825 14.9161C13.7075 14.791 13.7778 14.6215 13.7778 14.4447V3.77799C13.7778 3.60118 13.7075 3.43161 13.5825 3.30659C13.4575 3.18157 13.2879 3.11133 13.1111 3.11133ZM12.8889 14.2224H4.88889V4.00022H12.8889V14.2224Z" fill="black"/>
<path id="Vector_2" d="M11.5556 1.55534C11.5556 1.37853 11.4854 1.20896 11.3603 1.08393C11.2353 0.95891 11.0658 0.888672 10.8889 0.888672H2.4445C2.26769 0.888672 2.09812 0.95891 1.97309 1.08393C1.84807 1.20896 1.77783 1.37853 1.77783 1.55534V12.222C1.77783 12.3988 1.84807 12.5684 1.97309 12.6934C2.09812 12.8184 2.26769 12.8887 2.4445 12.8887H2.66672V1.77756H11.5556V1.55534Z" fill="black"/>
</g>
<defs>
<clipPath id="clip0_0_28287">
<rect width="16" height="16" fill="white"/>
</clipPath>
</defs>
</svg>
