<svg width="14" height="14" viewBox="0 0 14 14" fill="none" xmlns="http://www.w3.org/2000/svg">
<g id="icon-park-outline:download-web">
<g id="Group">
<path id="Vector" d="M7.87508 11.6673H2.04175C1.80968 11.6673 1.58712 11.5751 1.42303 11.411C1.25894 11.2469 1.16675 11.0244 1.16675 10.7923V3.20898C1.16675 2.97692 1.25894 2.75436 1.42303 2.59027C1.58712 2.42617 1.80968 2.33398 2.04175 2.33398H11.9584C12.1905 2.33398 12.413 2.42617 12.5771 2.59027C12.7412 2.75436 12.8334 2.97692 12.8334 3.20898V7.00065M9.91675 10.5007L11.3751 11.959M11.3751 11.959L12.8334 10.5007M11.3751 11.959V8.45898" stroke="#A0A1AB" stroke-linecap="round" stroke-linejoin="round"/>
<path id="Vector_2" d="M1.16675 3.20898C1.16675 2.97692 1.25894 2.75436 1.42303 2.59027C1.58712 2.42617 1.80968 2.33398 2.04175 2.33398H11.9584C12.1905 2.33398 12.413 2.42617 12.5771 2.59027C12.7412 2.75436 12.8334 2.97692 12.8334 3.20898V5.83398H1.16675V3.20898Z" stroke="#A0A1AB"/>
<path id="Vector_3" d="M2.33333 4.08464C2.33333 3.76247 2.5945 3.5013 2.91667 3.5013C3.23883 3.5013 3.5 3.76247 3.5 4.08464C3.5 4.4068 3.23883 4.66797 2.91667 4.66797C2.5945 4.66797 2.33333 4.4068 2.33333 4.08464Z" fill="#A0A1AB"/>
<path id="Vector_4" d="M4.08333 4.08464C4.08333 3.76247 4.3445 3.5013 4.66667 3.5013C4.98883 3.5013 5.25 3.76247 5.25 4.08464C5.25 4.4068 4.98883 4.66797 4.66667 4.66797C4.3445 4.66797 4.08333 4.4068 4.08333 4.08464Z" fill="#A0A1AB"/>
</g>
</g>
</svg>
