<svg width="14" height="14" viewBox="0 0 14 14" fill="none" xmlns="http://www.w3.org/2000/svg">
<mask id="mask0_0_44334" style="mask-type:alpha" maskUnits="userSpaceOnUse" x="0" y="0" width="14" height="14">
<rect width="14" height="14" fill="#D9D9D9"/>
</mask>
<g mask="url(#mask0_0_44334)">
<path d="M2.16667 12.9729C1.84583 12.9729 1.57118 12.8587 1.34271 12.6302C1.11424 12.4017 1 12.1271 1 11.8062V3.63958C1 3.31875 1.11424 3.0441 1.34271 2.81562C1.57118 2.58715 1.84583 2.47292 2.16667 2.47292H7.37292L6.20625 3.63958H2.16667V11.8062H10.3333V7.75208L11.5 6.58542V11.8062C11.5 12.1271 11.3858 12.4017 11.1573 12.6302C10.9288 12.8587 10.6542 12.9729 10.3333 12.9729H2.16667ZM8.68542 2.80833L9.51667 3.625L5.66667 7.475V8.30625H6.48333L10.3479 4.44167L11.1792 5.25833L6.97917 9.47292H4.5V6.99375L8.68542 2.80833ZM11.1792 5.25833L8.68542 2.80833L10.1437 1.35C10.3771 1.11667 10.6566 1 10.9823 1C11.308 1 11.5826 1.11667 11.8062 1.35L12.6229 2.18125C12.8465 2.40486 12.9583 2.67708 12.9583 2.99792C12.9583 3.31875 12.8465 3.59097 12.6229 3.81458L11.1792 5.25833Z" fill="#A0A1AB"/>
</g>
</svg>
