<svg width="60" height="60" viewBox="0 0 60 60" fill="none" xmlns="http://www.w3.org/2000/svg">
<g clip-path="url(#clip0_0_1501)">
<path d="M59.4795 49.8046C59.7032 49.1899 34.0224 29.4703 34.0224 29.4703C30.8073 27.0576 29.1164 27.0196 25.9371 29.4703C25.9371 29.4703 0.293746 49.174 0.50958 49.7802L0.504395 49.7847C0.507045 49.7899 0.511309 49.7936 0.514881 49.7984C0.732321 50.4012 1.04866 50.9621 1.45047 51.4574C1.62021 51.6667 1.82475 51.842 2.02146 52.0242L2.01189 52.0317C2.02756 52.0459 2.04842 52.0525 2.06409 52.0667C2.89781 52.823 3.94921 53.3128 5.11723 53.4526C5.13555 53.4549 5.1503 53.4646 5.16862 53.4668H5.23914C5.41672 53.484 5.58554 53.5274 5.76738 53.5274H54.2489C56.6362 53.5274 58.6588 52.0007 59.4622 49.8605C59.4718 49.8445 59.4865 49.8331 59.4953 49.8167L59.4795 49.8046V49.8046Z" fill="#026672"/>
<path d="M30.0153 27.208L0.640137 49.6128V17.8727C0.640137 14.7789 3.10581 12.2715 6.14799 12.2715H53.8827C56.9249 12.2715 59.3905 14.7789 59.3905 17.8727V49.6128L30.0153 27.208Z" fill="#0090A1"/>
<path d="M0.98291 15.9258L26.0631 35.9589C29.2286 38.3344 30.8935 38.3719 34.0238 35.9589L59.0646 15.9576C58.6302 15.1567 57.9798 14.524 57.236 14.0195L57.5804 13.7451C56.7398 12.9668 55.6652 12.4623 54.4724 12.332L5.5606 12.3338C4.37115 12.4623 3.29486 12.9686 2.45595 13.7451L2.79785 14.0161C2.06266 14.5136 1.41827 15.1354 0.98291 15.9258V15.9258Z" fill="#57A3FD"/>
<path d="M0.974426 15.9663C0.754213 16.5716 26.0393 35.9872 26.0393 35.9872C29.2048 38.3627 30.8697 38.4002 34 35.9872C34 35.9872 59.2482 16.5873 59.0356 15.9903L59.0408 15.986C59.0383 15.9807 59.034 15.9773 59.0305 15.9725C58.8165 15.379 58.505 14.8267 58.1094 14.339C57.9423 14.1329 57.7408 13.9604 57.5472 13.7809L57.5567 13.7735C57.5413 13.7595 57.5207 13.753 57.5053 13.739C56.6844 12.9944 55.6492 12.5121 54.4993 12.3744C54.4813 12.3721 54.4667 12.3627 54.4487 12.3604H54.3793C54.2045 12.3434 54.0382 12.3008 53.8592 12.3008H6.12448C3.77393 12.3008 1.78245 13.8041 0.991596 15.9112C0.982147 15.9269 0.967627 15.9383 0.958984 15.9543L0.974426 15.9663V15.9663Z" fill="#0EADBF"/>
</g>
<defs>
<clipPath id="clip0_0_1501">
<rect width="59" height="60" fill="white" transform="translate(0.5)"/>
</clipPath>
</defs>
</svg>
