<svg width="12" height="12" viewBox="0 0 12 12" fill="none" xmlns="http://www.w3.org/2000/svg">
<g id="hypercube" clip-path="url(#clip0_1257_36546)">
<path id="Vector" d="M12 8.7C12 8.928 11.86 9.126 11.6467 9.228L6.38 11.892C6.27333 11.964 6.14 12 6 12C5.86 12 5.72667 11.964 5.62 11.892L0.353336 9.228C0.246456 9.17745 0.157011 9.10151 0.094718 9.00842C0.0324253 8.91534 -0.00033278 8.80867 2.54883e-06 8.7V3.3C2.54883e-06 3.072 0.140002 2.874 0.353336 2.772L5.62 0.108C5.72667 0.036 5.86 0 6 0C6.14 0 6.27333 0.036 6.38 0.108L11.6467 2.772C11.86 2.874 12 3.072 12 3.3V8.7ZM6 1.29L2.02667 3.3L6 5.31L9.97333 3.3L6 1.29ZM1.33334 8.346L5.33333 10.374V6.348L1.33334 4.326V8.346ZM10.6667 8.346V4.326L6.66667 6.348V10.374L10.6667 8.346Z" fill="black"/>
</g>
<defs>
<clipPath id="clip0_1257_36546">
<rect width="12" height="12" fill="white"/>
</clipPath>
</defs>
</svg>
