<svg width="12" height="12" viewBox="0 0 12 12" fill="none" xmlns="http://www.w3.org/2000/svg">
<mask id="mask0_1278_36543" style="mask-type:alpha" maskUnits="userSpaceOnUse" x="0" y="0" width="12" height="12">
<rect width="12" height="12" fill="#D9D9D9"/>
</mask>
<g mask="url(#mask0_1278_36543)">
<path d="M2.24998 10.4999H9.7499V1.49998H2.24998V10.4999ZM2.24998 11.9999C1.83749 11.9999 1.48437 11.853 1.19062 11.5592C0.896873 11.2655 0.75 10.9124 0.75 10.4999V1.49998C0.75 1.08749 0.896873 0.734367 1.19062 0.44062C1.48437 0.146873 1.83749 0 2.24998 0H9.7499C10.1624 0 10.5155 0.146873 10.8093 0.44062C11.103 0.734367 11.2499 1.08749 11.2499 1.49998V10.4999C11.2499 10.9124 11.103 11.2655 10.8093 11.5592C10.5155 11.853 10.1624 11.9999 9.7499 11.9999H2.24998ZM3.74997 4.20109H8.24991V2.99997H3.74997V4.20109ZM3.74997 6.40919H8.24991V5.24994H3.74997V6.40919ZM3.74997 8.70113H8.24991V7.49991H3.74997V8.70113Z" fill="#1C1B1F"/>
</g>
</svg>
