<svg width="20" height="21" viewBox="0 0 20 21" fill="none" xmlns="http://www.w3.org/2000/svg">
<path fill-rule="evenodd" clip-rule="evenodd" d="M4.16699 3.95841C3.94598 3.95841 3.73402 4.04621 3.57774 4.20249C3.42146 4.35877 3.33366 4.57073 3.33366 4.79175V16.4584C3.33366 16.6794 3.42146 16.8914 3.57774 17.0477C3.73402 17.204 3.94598 17.2917 4.16699 17.2917H7.50033C7.96056 17.2917 8.33366 17.6648 8.33366 18.1251C8.33366 18.5853 7.96056 18.9584 7.50033 18.9584H4.16699C3.50395 18.9584 2.86807 18.695 2.39923 18.2262C1.93038 17.7573 1.66699 17.1215 1.66699 16.4584V4.79175C1.66699 4.12871 1.93038 3.49282 2.39923 3.02398C2.86807 2.55514 3.50395 2.29175 4.16699 2.29175H7.50033C7.96056 2.29175 8.33366 2.66484 8.33366 3.12508C8.33366 3.58532 7.96056 3.95841 7.50033 3.95841H4.16699Z" fill="#47494D"/>
<path fill-rule="evenodd" clip-rule="evenodd" d="M12.7441 5.86908C13.0695 5.54364 13.5972 5.54364 13.9226 5.86908L18.0893 10.0357C18.4147 10.3612 18.4147 10.8888 18.0893 11.2143L13.9226 15.3809C13.5972 15.7064 13.0695 15.7064 12.7441 15.3809C12.4186 15.0555 12.4186 14.5278 12.7441 14.2024L16.3215 10.625L12.7441 7.04759C12.4186 6.72215 12.4186 6.19451 12.7441 5.86908Z" fill="#47494D"/>
<path fill-rule="evenodd" clip-rule="evenodd" d="M6.66699 10.6251C6.66699 10.1648 7.04009 9.79175 7.50033 9.79175H17.5003C17.9606 9.79175 18.3337 10.1648 18.3337 10.6251C18.3337 11.0853 17.9606 11.4584 17.5003 11.4584H7.50033C7.04009 11.4584 6.66699 11.0853 6.66699 10.6251Z" fill="#47494D"/>
</svg>
