<svg width="13" height="12" viewBox="0 0 13 12" fill="none" xmlns="http://www.w3.org/2000/svg">
<mask id="mask0_0_44378" style="mask-type:alpha" maskUnits="userSpaceOnUse" x="0" y="0" width="13" height="12">
<rect x="0.766602" width="12" height="12" fill="#D9D9D9"/>
</mask>
<g mask="url(#mask0_0_44378)">
<path d="M2.25488 10.625V7.625H3.25488V9.625H5.25488V10.625H2.25488ZM8.25488 10.625V9.625H10.2549V7.625H11.2549V10.625H8.25488ZM4.34238 8.0375L3.62988 7.3375L4.34238 6.625H1.75488V5.625H4.34238L3.62988 4.9125L4.34238 4.2125L6.25488 6.125L4.34238 8.0375ZM9.16738 8.0375L7.25488 6.125L9.16738 4.2125L9.87988 4.9125L9.16738 5.625H11.7549V6.625H9.16738L9.87988 7.3375L9.16738 8.0375ZM2.25488 4.625V1.625H5.25488V2.625H3.25488V4.625H2.25488ZM10.2549 4.625V2.625H8.25488V1.625H11.2549V4.625H10.2549Z" fill="#0090A1"/>
</g>
</svg>
