<svg width="130" height="129" viewBox="0 0 130 129" fill="none" xmlns="http://www.w3.org/2000/svg">
<circle cx="65" cy="64.5" r="64.5" fill="#EFF0F6"/>
<path d="M83.6781 46.3264V57.4275C83.6781 57.9795 83.2316 58.426 82.6796 58.426H77.3781C76.8273 58.426 76.3808 57.9795 76.3808 57.4275V53.6248C76.3808 53.0728 75.9332 52.6264 75.3824 52.6264H69.1468C68.5949 52.6264 68.1484 53.0728 68.1484 53.6248V81.063C68.1484 81.615 68.5949 82.0615 69.1468 82.0615H71.8738C72.4257 82.0615 72.8722 82.508 72.8722 83.0599V88.3615C72.8722 88.9123 72.4257 89.3587 71.8738 89.3587H57.1246C56.5726 89.3587 56.1262 88.9123 56.1262 88.3615V83.0599C56.1262 82.508 56.5726 82.0615 57.1246 82.0615H59.8515C60.4035 82.0615 60.85 81.615 60.85 81.063V53.6248C60.85 53.0728 60.4035 52.6264 59.8515 52.6264H53.616C53.0652 52.6264 52.6176 53.0728 52.6176 53.6248V57.4275C52.6176 57.9795 52.1711 58.426 51.6203 58.426H46.3187C45.7668 58.426 45.3203 57.9795 45.3203 57.4275V46.3264C45.3203 45.7756 45.7668 45.3291 46.3187 45.3291H82.6796C83.2316 45.3291 83.6781 45.7756 83.6781 46.3264Z" fill="#BEC6CB"/>
<path d="M36.2578 48.3869C35.287 48.3869 34.5 47.5999 34.5 46.6291V36.7578C34.5 35.787 35.287 35 36.2578 35H46.1291C47.0999 35 47.8869 35.787 47.8869 36.7578C47.8869 37.7286 47.0999 38.5156 46.1291 38.5156H38.0156V46.6291C38.0156 47.6 37.2286 48.3869 36.2578 48.3869Z" fill="#BEC6CC"/>
<path d="M92.7463 48.3869C91.7755 48.3869 90.9885 47.5999 90.9885 46.6291V38.5156H82.875C81.9042 38.5156 81.1172 37.7286 81.1172 36.7578C81.1172 35.787 81.9042 35 82.875 35H92.7463C93.7171 35 94.5041 35.787 94.5041 36.7578V46.6291C94.5041 47.6 93.7171 48.3869 92.7463 48.3869Z" fill="#BEC6CC"/>
<path d="M92.7463 94.9992H82.875C81.9042 94.9992 81.1172 94.2122 81.1172 93.2414C81.1172 92.2706 81.9042 91.4836 82.875 91.4836H90.9885V83.3701C90.9885 82.3993 91.7755 81.6123 92.7463 81.6123C93.7171 81.6123 94.5041 82.3993 94.5041 83.3701V93.2414C94.5041 94.2122 93.7171 94.9992 92.7463 94.9992Z" fill="#BEC6CC"/>
<path d="M46.1291 95.0002H36.2578C35.287 95.0002 34.5 94.2131 34.5 93.2424V83.3711C34.5 82.4003 35.287 81.6133 36.2578 81.6133C37.2286 81.6133 38.0156 82.4003 38.0156 83.3711V91.4846H46.1291C47.0999 91.4846 47.8869 92.2716 47.8869 93.2424C47.8869 94.2131 47.1 95.0002 46.1291 95.0002Z" fill="#BEC6CC"/>
<path d="M83.6788 46.3264V57.4275C83.6788 57.9795 83.2323 58.426 82.6803 58.426H77.3788C76.828 58.426 76.3815 57.9795 76.3815 57.4275V53.6248C76.3815 53.0728 75.9338 52.6264 75.3831 52.6264H69.1475C68.5956 52.6264 68.1491 53.0728 68.1491 53.6248V81.063C68.1491 81.615 68.5956 82.0615 69.1475 82.0615H71.8745C72.4264 82.0615 72.8729 82.508 72.8729 83.0599V88.3615C72.8729 88.9123 72.4264 89.3587 71.8745 89.3587H64.4999V45.3291H82.6803C83.2323 45.3291 83.6788 45.7756 83.6788 46.3264Z" fill="#B1BABF"/>
</svg>
