<svg width="32" height="32" viewBox="0 0 32 32" fill="none" xmlns="http://www.w3.org/2000/svg">
<g id="material-symbols:error-outline">
<path id="Vector" d="M15.665 22.9975C16.0805 22.9975 16.429 22.8567 16.7106 22.5751C16.9922 22.2936 17.1325 21.9455 17.1315 21.531C17.1315 21.1155 16.9907 20.767 16.7091 20.4854C16.4276 20.2038 16.0795 20.0635 15.665 20.0645C15.2495 20.0645 14.901 20.2053 14.6194 20.4868C14.3378 20.7684 14.1975 21.1165 14.1985 21.531C14.1985 21.9465 14.3393 22.295 14.6209 22.5766C14.9024 22.8582 15.2505 22.9985 15.665 22.9975ZM14.1985 17.1315H17.1315V8.3325H14.1985V17.1315ZM15.665 30.33C13.6363 30.33 11.7299 29.9448 9.94565 29.1744C8.16141 28.404 6.60936 27.3594 5.28951 26.0405C3.96966 24.7206 2.92503 23.1686 2.1556 21.3843C1.38618 19.6001 1.00098 17.6937 1 15.665C1 13.6363 1.3852 11.7299 2.1556 9.94565C2.926 8.16141 3.97064 6.60936 5.28951 5.28951C6.60936 3.96966 8.16141 2.92503 9.94565 2.1556C11.7299 1.38618 13.6363 1.00098 15.665 1C17.6937 1 19.6001 1.3852 21.3843 2.1556C23.1686 2.926 24.7206 3.97064 26.0405 5.28951C27.3603 6.60936 28.4055 8.16141 29.1759 9.94565C29.9463 11.7299 30.331 13.6363 30.33 15.665C30.33 17.6937 29.9448 19.6001 29.1744 21.3843C28.404 23.1686 27.3594 24.7206 26.0405 26.0405C24.7206 27.3603 23.1686 28.4055 21.3843 29.1759C19.6001 29.9463 17.6937 30.331 15.665 30.33ZM15.665 27.397C18.9402 27.397 21.7143 26.2605 23.9874 23.9874C26.2605 21.7143 27.397 18.9402 27.397 15.665C27.397 12.3898 26.2605 9.61569 23.9874 7.34261C21.7143 5.06954 18.9402 3.933 15.665 3.933C12.3898 3.933 9.61569 5.06954 7.34261 7.34261C5.06954 9.61569 3.933 12.3898 3.933 15.665C3.933 18.9402 5.06954 21.7143 7.34261 23.9874C9.61569 26.2605 12.3898 27.397 15.665 27.397Z" fill="#FF6B00"/>
</g>
</svg>
