<svg width="17" height="16" viewBox="0 0 17 16" fill="none" xmlns="http://www.w3.org/2000/svg">
<path d="M12.9215 8.66732H9.58822V12.0007C9.58822 12.3673 9.28822 12.6673 8.92155 12.6673C8.55488 12.6673 8.25488 12.3673 8.25488 12.0007V8.66732H4.92155C4.55488 8.66732 4.25488 8.36732 4.25488 8.00065C4.25488 7.63398 4.55488 7.33398 4.92155 7.33398H8.25488V4.00065C8.25488 3.63398 8.55488 3.33398 8.92155 3.33398C9.28822 3.33398 9.58822 3.63398 9.58822 4.00065V7.33398H12.9215C13.2882 7.33398 13.5882 7.63398 13.5882 8.00065C13.5882 8.36732 13.2882 8.66732 12.9215 8.66732Z" fill="white"/>
</svg>
