<svg width="10" height="10" viewBox="0 0 10 10" fill="none" xmlns="http://www.w3.org/2000/svg">
<g id="device_reset">
<mask id="mask0_0_25877" style="mask-type:alpha" maskUnits="userSpaceOnUse" x="0" y="0" width="10" height="10">
<rect id="Bounding box" width="10" height="10" fill="#919eab"/>
</mask>
<g mask="url(#mask0_0_25877)">
<path id="device_reset_2" d="M5 8.75C4.04167 8.75 3.2066 8.43229 2.49479 7.79688C1.78299 7.16146 1.375 6.36806 1.27083 5.41667H2.125C2.22222 6.13889 2.5434 6.73611 3.08854 7.20833C3.63368 7.68056 4.27083 7.91667 5 7.91667C5.8125 7.91667 6.50174 7.63368 7.06771 7.06771C7.63368 6.50174 7.91667 5.8125 7.91667 5C7.91667 4.1875 7.63368 3.49826 7.06771 2.93229C6.50174 2.36632 5.8125 2.08333 5 2.08333C4.52083 2.08333 4.07292 2.19444 3.65625 2.41667C3.23958 2.63889 2.88889 2.94444 2.60417 3.33333H3.75V4.16667H1.25V1.66667H2.08333V2.64583C2.4375 2.20139 2.86979 1.85764 3.38021 1.61458C3.89062 1.37153 4.43056 1.25 5 1.25C5.52083 1.25 6.00868 1.34896 6.46354 1.54688C6.9184 1.74479 7.31424 2.01215 7.65104 2.34896C7.98785 2.68576 8.25521 3.0816 8.45312 3.53646C8.65104 3.99132 8.75 4.47917 8.75 5C8.75 5.52083 8.65104 6.00868 8.45312 6.46354C8.25521 6.9184 7.98785 7.31424 7.65104 7.65104C7.31424 7.98785 6.9184 8.25521 6.46354 8.45312C6.00868 8.65104 5.52083 8.75 5 8.75Z" fill="#919eab"/>
</g>
</g>
</svg>
