<svg width="17" height="17" viewBox="0 0 17 17" fill="none" xmlns="http://www.w3.org/2000/svg">
<path fill-rule="evenodd" clip-rule="evenodd" d="M8.25507 2.69076C5.67774 2.69076 3.5884 4.78009 3.5884 7.35742C3.5884 9.93475 5.67774 12.0241 8.25507 12.0241C10.8324 12.0241 12.9217 9.93475 12.9217 7.35742C12.9217 4.78009 10.8324 2.69076 8.25507 2.69076ZM2.25507 7.35742C2.25507 4.04371 4.94136 1.35742 8.25507 1.35742C11.5688 1.35742 14.2551 4.04371 14.2551 7.35742C14.2551 10.6711 11.5688 13.3574 8.25507 13.3574C4.94136 13.3574 2.25507 10.6711 2.25507 7.35742Z" fill="#A0A1AB"/>
<path fill-rule="evenodd" clip-rule="evenodd" d="M11.5509 10.6523C11.8113 10.3919 12.2334 10.3919 12.4937 10.6523L15.3937 13.5523C15.6541 13.8126 15.6541 14.2348 15.3937 14.4951C15.1334 14.7555 14.7113 14.7555 14.4509 14.4951L11.5509 11.5951C11.2906 11.3348 11.2906 10.9126 11.5509 10.6523Z" fill="#A0A1AB"/>
</svg>
