<svg width="12" height="12" viewBox="0 0 12 12" fill="none" xmlns="http://www.w3.org/2000/svg">
<path id="Subtract" fill-rule="evenodd" clip-rule="evenodd" d="M0 3C0 1.34314 1.34314 0 3 0H8.25C9.90686 0 11.25 1.34314 11.25 3V8.25C11.25 9.90686 9.90686 11.25 8.25 11.25H3C1.34314 11.25 0 9.90686 0 8.25V3ZM2.41522 5.62183C2.41522 5.33441 2.6482 5.10143 2.93561 5.10143H5.09704H6.13783H8.11001C8.39742 5.10143 8.6304 5.33441 8.6304 5.62183C8.6304 5.90924 8.39742 6.14222 8.11001 6.14222H6.13783H5.09704H2.93561C2.6482 6.14222 2.41522 5.90924 2.41522 5.62183Z" fill="#0090A1"/>
</svg>
