<svg width="32" height="32" viewBox="0 0 32 32" fill="none" xmlns="http://www.w3.org/2000/svg">
<path d="M13.6573 22.2457L8 16.587L9.88533 14.7017L13.6573 18.4724L21.1987 10.9297L23.0853 12.8164L13.6573 22.243V22.2457Z" fill="#00C708"/>
<path fill-rule="evenodd" clip-rule="evenodd" d="M1.33325 16.4928C1.33325 8.39284 7.89992 1.82617 15.9999 1.82617C24.0999 1.82617 30.6666 8.39284 30.6666 16.4928C30.6666 24.5928 24.0999 31.1595 15.9999 31.1595C7.89992 31.1595 1.33325 24.5928 1.33325 16.4928ZM15.9999 28.4928C14.4241 28.4928 12.8636 28.1825 11.4077 27.5794C9.95181 26.9763 8.62894 26.0924 7.51464 24.9781C6.40033 23.8638 5.51642 22.5409 4.91336 21.085C4.31031 19.6291 3.99992 18.0687 3.99992 16.4928C3.99992 14.917 4.31031 13.3565 4.91336 11.9006C5.51642 10.4447 6.40033 9.12186 7.51464 8.00756C8.62894 6.89325 9.95181 6.00934 11.4077 5.40628C12.8636 4.80323 14.4241 4.49284 15.9999 4.49284C19.1825 4.49284 22.2348 5.75712 24.4852 8.00756C26.7356 10.258 27.9999 13.3102 27.9999 16.4928C27.9999 19.6754 26.7356 22.7277 24.4852 24.9781C22.2348 27.2286 19.1825 28.4928 15.9999 28.4928Z" fill="#00C708"/>
</svg>
