<svg width="17" height="16" viewBox="0 0 17 16" fill="none" xmlns="http://www.w3.org/2000/svg">
<path d="M2.27778 16C1.78889 16 1.37037 15.8259 1.02222 15.4778C0.674074 15.1296 0.5 14.7111 0.5 14.2222V1.77778C0.5 1.28889 0.674074 0.87037 1.02222 0.522222C1.37037 0.174074 1.78889 0 2.27778 0H14.7222C15.2111 0 15.6296 0.174074 15.9778 0.522222C16.3259 0.87037 16.5 1.28889 16.5 1.77778V14.2222C16.5 14.7111 16.3259 15.1296 15.9778 15.4778C15.6296 15.8259 15.2111 16 14.7222 16H2.27778ZM2 14.5H15V1.56463H2V14.5Z" fill="#2B2D2E"/>
<path d="M5.54004 12.1713V10.9861H13.8233V12.1713H5.54004ZM5.54004 9.80093V8.61574H13.8233V9.80093H5.54004ZM5.54004 7.43056V6.24537H13.8233V7.43056H5.54004ZM5.54004 5.06019V3.875H13.8233V5.06019H5.54004Z" fill="#2B2D2E"/>
<path d="M3.21289 13.0633V2.98926H5.58326V13.0633H3.21289ZM3.80548 12.4707H4.99067V3.58185H3.80548V12.4707Z" fill="#2B2D2E"/>
</svg>
