<svg width="16" height="16" viewBox="0 0 16 16" fill="none" xmlns="http://www.w3.org/2000/svg">
<g clip-path="url(#clip0_614_29405)">
<path d="M13.1749 3.72023C13.1721 3.7243 13.1621 3.73742 8.93771 9.28961C8.72958 9.58086 8.78614 9.46586 8.79145 13.7027C8.79211 14.3614 8.30699 14.5385 7.04645 15.4671C6.4952 15.8718 6.3752 15.999 6.08958 15.9996C5.72395 15.9996 5.4102 15.7177 5.40989 15.3465C5.4027 9.34336 5.46739 9.59461 5.25114 9.29399C0.786767 3.45477 0.98983 3.72199 1.00114 3.7343C0.703955 3.32711 1.00489 2.76211 1.52614 2.76148C3.59389 2.7588 3.5618 2.75917 12.6477 2.74805C13.1665 2.74742 13.4715 3.31023 13.1749 3.72023Z" fill="#FFEC00"/>
<path d="M13.1747 3.72023C13.1719 3.7243 13.1619 3.73742 8.93748 9.28961C8.72936 9.58086 8.78592 9.46586 8.79123 13.7027C8.79189 14.3614 8.30676 14.5385 7.04623 15.4671C7.03498 14.0224 7.04936 10.623 7.05217 2.75492C8.51655 2.75305 10.3522 2.75086 12.6475 2.74805C13.1662 2.74742 13.4712 3.31023 13.1747 3.72023Z" fill="#FFD92E"/>
<path d="M15.1165 3.72575C15.1165 5.77894 13.4435 7.4515 11.3844 7.4515C9.32623 7.4515 7.65186 5.78025 7.65186 3.72575C7.65186 1.67125 9.32623 0 11.3844 0C13.4419 0 15.1165 1.67091 15.1165 3.72575Z" fill="#FF2828"/>
<path d="M15.1164 3.72575C15.1164 5.77803 13.4458 7.44772 11.3911 7.4515V0C13.4458 0.00375 15.1164 1.67347 15.1164 3.72575Z" fill="#CC0000"/>
<path d="M12.6028 4.27787C12.8995 4.57359 12.6874 5.07999 12.2721 5.07999C12.0137 5.07999 11.9409 4.94284 11.3915 4.39465C11.3816 4.38468 11.4465 4.32609 10.8278 4.94318C10.3887 5.38159 9.72645 4.71618 10.1662 4.27787L10.7203 3.72496L10.1662 3.17206C9.72629 2.73359 10.3889 2.06859 10.8278 2.50674L11.3846 3.06218C11.3955 3.05128 11.93 2.51796 11.9412 2.50674C12.3801 2.06859 13.0429 2.73337 12.6028 3.17206L12.0487 3.72496L12.6028 4.27787Z" fill="#ECF9FD"/>
<path d="M12.6024 4.2779C12.8991 4.57362 12.687 5.08003 12.2717 5.08003C12.0133 5.08003 11.9405 4.94287 11.3911 4.39468V3.05528L11.9408 2.50674C12.3797 2.06859 13.0425 2.73337 12.6024 3.17206L12.0483 3.72496L12.6024 4.2779Z" fill="#D9F3FC"/>
</g>
<defs>
<clipPath id="clip0_614_29405">
<rect width="16" height="16" fill="white"/>
</clipPath>
</defs>
</svg>
