<svg width="17" height="16" viewBox="0 0 17 16" fill="none" xmlns="http://www.w3.org/2000/svg">
<mask id="mask0_631_27343" style="mask-type:alpha" maskUnits="userSpaceOnUse" x="0" y="0" width="17" height="16">
<rect x="0.5" width="15.8466" height="15.8466" fill="#D9D9D9"/>
</mask>
<g mask="url(#mask0_631_27343)">
<path d="M2.04102 7.10254V5.76921H6.60539V7.10254H2.04102ZM2.04102 4.43587V3.10254H6.60539V4.43587H2.04102Z" fill="#1C1B1F"/>
<path d="M2.04102 12.7695V11.4362H6.60539V12.7695H2.04102ZM2.04102 10.1029V8.76953H6.60539V10.1029H2.04102Z" fill="#1C1B1F"/>
<path d="M9.65234 7.10254V5.76921H14.6523V7.10254H9.65234ZM9.65234 4.43587V3.10254H14.6523V4.43587H9.65234Z" fill="#1C1B1F"/>
<path d="M9.65234 12.7695V11.4362H14.6523V12.7695H9.65234ZM9.65234 10.1029V8.76953H14.6523V10.1029H9.65234Z" fill="#1C1B1F"/>
<path d="M7.42236 14.3333V1H8.7557V14.3333H7.42236Z" fill="#1C1B1F"/>
</g>
</svg>
