<svg width="16" height="16" viewBox="0 0 16 16" fill="none" xmlns="http://www.w3.org/2000/svg">
<path d="M10.5278 0H3.49658C2.54886 0 1.77783 0.771031 1.77783 1.71875V14.2812C1.77783 15.229 2.54886 16 3.49658 16H12.2466C13.1943 16 13.9653 15.229 13.9653 14.2812V3.4375L10.5278 0Z" fill="#EDF2F2"/>
<path d="M10.4554 0H7.74316V16H12.2104C13.1781 16 13.9654 15.229 13.9654 14.2812V3.4375L10.4554 0Z" fill="#C9DCDC"/>
<path d="M6.30908 6.28125H11.6216C11.8805 6.28125 12.0903 6.07138 12.0903 5.8125C12.0903 5.55362 11.8805 5.34375 11.6216 5.34375H6.30908C6.05021 5.34375 5.84033 5.55362 5.84033 5.8125C5.84033 6.07138 6.05021 6.28125 6.30908 6.28125Z" fill="#646E6E"/>
<path d="M7.55908 8.15625H11.6216C11.8805 8.15625 12.0903 7.94638 12.0903 7.6875C12.0903 7.42862 11.8805 7.21875 11.6216 7.21875H7.55908C7.30021 7.21875 7.09033 7.42862 7.09033 7.6875C7.09033 7.94638 7.30021 8.15625 7.55908 8.15625Z" fill="#646E6E"/>
<path d="M7.55908 10.0312H11.6216C11.8805 10.0312 12.0903 9.82138 12.0903 9.5625C12.0903 9.30362 11.8805 9.09375 11.6216 9.09375H7.55908C7.30021 9.09375 7.09033 9.30362 7.09033 9.5625C7.09033 9.82138 7.30021 10.0312 7.55908 10.0312Z" fill="#646E6E"/>
<path d="M10.4097 0V2.96875C10.4097 3.22762 10.6195 3.4375 10.8784 3.4375H13.8472L10.4097 0Z" fill="#A5BFBF"/>
<path d="M5.84033 5.8125C5.84033 5.55362 6.05021 5.34375 6.30908 5.34375H7.87158V6.28125H6.30908C6.05021 6.28125 5.84033 6.07138 5.84033 5.8125Z" fill="#3C4646"/>
<path d="M7.09033 7.6875C7.09033 7.42862 7.30021 7.21875 7.55908 7.21875H7.87158V8.15625H7.55908C7.30021 8.15625 7.09033 7.94638 7.09033 7.6875Z" fill="#3C4646"/>
<path d="M7.09033 9.5625C7.09033 9.30362 7.30021 9.09375 7.55908 9.09375H7.87158V10.0312H7.55908C7.30021 10.0312 7.09033 9.82138 7.09033 9.5625Z" fill="#3C4646"/>
<path d="M7.90597 13.3356L6.62202 12.0911C6.49668 11.9696 6.29343 11.9696 6.16808 12.0911C6.04272 12.2126 6.04272 12.4096 6.16808 12.5311L6.90408 13.2444H2.54321C2.36594 13.2444 2.22222 13.3837 2.22222 13.5556C2.22222 13.7274 2.36594 13.8667 2.54321 13.8667H6.90408L6.16808 14.58C6.04272 14.7015 6.04272 14.8985 6.16808 15.02C6.23076 15.0807 6.31291 15.1111 6.39506 15.1111C6.47721 15.1111 6.55936 15.0807 6.62202 15.02L7.90597 13.7755C8.03134 13.654 8.03134 13.4571 7.90597 13.3356Z" fill="#176EDE"/>
</svg>
