<svg width="17" height="16" viewBox="0 0 17 16" fill="none" xmlns="http://www.w3.org/2000/svg">
<mask id="mask0_631_27376" style="mask-type:alpha" maskUnits="userSpaceOnUse" x="0" y="0" width="17" height="16">
<rect x="0.5" width="15.8466" height="15.8466" fill="#D9D9D9"/>
</mask>
<g mask="url(#mask0_631_27376)">
<path d="M5.479 7.33333V6H8.04338V7.33333H5.479Z" fill="#1C1B1F"/>
<path d="M5.479 13V11.6667H8.04338V13H5.479ZM5.479 10.3333V9H8.04338V10.3333H5.479Z" fill="#1C1B1F"/>
<path d="M9.13721 7.33301V5.99967H12.1372V7.33301H9.13721ZM9.13721 4.66634V3.33301H12.1372V4.66634H9.13721Z" fill="#1C1B1F"/>
<path d="M13.2432 7.33301V5.99967H16.2432V7.33301H13.2432ZM13.2432 4.66634V3.33301H16.2432V4.66634H13.2432Z" fill="#1C1B1F"/>
<path d="M9.13721 13V11.6667H12.1372V13H9.13721ZM9.13721 10.3333V9H12.1372V10.3333H9.13721Z" fill="#1C1B1F"/>
<path d="M13.2432 13V11.6667H16.2432V13H13.2432ZM13.2432 10.3333V9H16.2432V10.3333H13.2432Z" fill="#1C1B1F"/>
<path d="M0.86084 14.5638V1.23047H2.19417V14.5638H0.86084Z" fill="#1C1B1F"/>
<path d="M2.86084 13.8978V2.56445H5.52751V13.8978H2.86084ZM3.52751 13.2311H4.86084V3.23112H3.52751V13.2311Z" fill="#1C1B1F"/>
</g>
</svg>
