<svg width="17" height="16" viewBox="0 0 17 16" fill="none" xmlns="http://www.w3.org/2000/svg">
<mask id="mask0_631_27365" style="mask-type:alpha" maskUnits="userSpaceOnUse" x="0" y="0" width="17" height="16">
<rect x="0.5" width="15.8466" height="15.8466" fill="#D9D9D9"/>
</mask>
<g mask="url(#mask0_631_27365)">
<path d="M5.479 12.667V11.3337H16.0434V12.667H5.479ZM5.479 10.0003V8.66699H16.0434V10.0003H5.479Z" fill="#1C1B1F"/>
<path d="M5.479 7.33301V5.99967H10.0434V7.33301H5.479ZM5.479 4.66634V3.33301H10.0434V4.66634H5.479Z" fill="#1C1B1F"/>
<path d="M11.0903 7.33301V5.99967H16.0903V7.33301H11.0903ZM11.0903 4.66634V3.33301H16.0903V4.66634H11.0903Z" fill="#1C1B1F"/>
<path d="M0.860352 14.5638V1.23047H2.19368V14.5638H0.860352Z" fill="#1C1B1F"/>
<path d="M2.86035 13.8978V2.56445H5.52702V13.8978H2.86035ZM3.52702 13.2311H4.86035V3.23112H3.52702V13.2311Z" fill="#1C1B1F"/>
</g>
</svg>
