<svg width="17" height="16" viewBox="0 0 17 16" fill="none" xmlns="http://www.w3.org/2000/svg">
<mask id="mask0_631_27390" style="mask-type:alpha" maskUnits="userSpaceOnUse" x="0" y="0" width="16" height="16">
<rect x="0.0400391" width="15.8466" height="15.8466" fill="#D9D9D9"/>
</mask>
<g mask="url(#mask0_631_27390)">
<path fill-rule="evenodd" clip-rule="evenodd" d="M3.94385 13.8652V2.16001H15.6491V13.8652H3.94385ZM10.8857 6.97508H8.70722V8.92595H10.8857V6.97508ZM10.8857 3.46059H8.70722V5.6745H10.8857V3.46059ZM7.40664 6.97508H5.24443V8.92595H7.40664V6.97508ZM14.3485 6.97508H12.1863V8.92595H14.3485V6.97508ZM7.40664 3.46059H5.24443V5.6745H7.40664V3.46059ZM14.3485 3.46059H12.1863V5.6745H14.3485V3.46059ZM5.24443 10.2265V12.5647H7.40584L7.41384 10.2265H5.24443ZM10.8857 12.5647H8.70909V10.2265H10.8857V12.5647ZM14.3485 12.5647V10.2265H12.1863V12.5647H14.3485Z" fill="#1C1B1F"/>
<path d="M1.36621 14.637V1.37109H4.4876V14.637H1.36621ZM2.14656 13.8567H3.70725V2.15144H2.14656V13.8567Z" fill="#1C1B1F"/>
</g>
</svg>
