<svg width="16" height="16" viewBox="0 0 16 16" fill="none" xmlns="http://www.w3.org/2000/svg">
<g clip-path="url(#clip0_614_29514)">
<path d="M12.5071 14.8684C12.5071 15.2331 12.2107 15.5295 11.846 15.5295H1.5142C1.1495 15.5295 0.853027 15.2331 0.853027 14.8684V1.13188C0.853027 0.767176 1.1495 0.470703 1.5142 0.470703H11.846C12.2107 0.470703 12.5071 0.767176 12.5071 1.13188V14.8684Z" fill="#E5E8F9"/>
<path d="M10.4272 2.33536V3.98512C10.4272 4.18004 10.2692 4.33806 10.0743 4.33806H3.28605C3.09112 4.33806 2.93311 4.18004 2.93311 3.98512V2.33536C2.93311 2.14044 3.09112 1.98242 3.28605 1.98242H10.0743C10.2692 1.98242 10.4272 2.14044 10.4272 2.33536Z" fill="#FF4848"/>
<path d="M4.70043 6.00528V7.32307C4.70043 7.518 4.54241 7.67601 4.34749 7.67601H3.0297C2.83477 7.67601 2.67676 7.518 2.67676 7.32307V6.00528C2.67676 5.81036 2.83477 5.65234 3.0297 5.65234H4.34749C4.54241 5.65234 4.70043 5.81036 4.70043 6.00528Z" fill="#6699FF"/>
<path d="M4.70043 9.24357V10.5614C4.70043 10.7563 4.54241 10.9143 4.34749 10.9143H3.0297C2.83477 10.9143 2.67676 10.7563 2.67676 10.5614V9.24357C2.67676 9.04864 2.83477 8.89062 3.0297 8.89062H4.34749C4.54241 8.89062 4.70043 9.04864 4.70043 9.24357Z" fill="#6699FF"/>
<path d="M4.70043 12.4818V13.7996C4.70043 13.9946 4.54241 14.1526 4.34749 14.1526H3.0297C2.83477 14.1526 2.67676 13.9946 2.67676 13.7996V12.4818C2.67676 12.2869 2.83477 12.1289 3.0297 12.1289H4.34749C4.54241 12.1289 4.70043 12.2869 4.70043 12.4818Z" fill="#6699FF"/>
<path d="M10.6834 6.33146H5.78633C5.68891 6.33146 5.60986 6.25241 5.60986 6.15499C5.60986 6.05756 5.68891 5.97852 5.78633 5.97852H10.6834C10.7808 5.97852 10.8599 6.05756 10.8599 6.15499C10.8599 6.25241 10.7808 6.33146 10.6834 6.33146Z" fill="#C5CEEA"/>
<path d="M10.6834 7.35099H5.78633C5.68891 7.35099 5.60986 7.27194 5.60986 7.17452C5.60986 7.07709 5.68891 6.99805 5.78633 6.99805H10.6834C10.7808 6.99805 10.8599 7.07709 10.8599 7.17452C10.8599 7.27194 10.7808 7.35099 10.6834 7.35099Z" fill="#C5CEEA"/>
<path d="M7.36814 9.56778H5.78633C5.68891 9.56778 5.60986 9.48874 5.60986 9.39131C5.60986 9.29389 5.68891 9.21484 5.78633 9.21484H7.36814C7.46556 9.21484 7.54461 9.29389 7.54461 9.39131C7.54461 9.48874 7.46556 9.56778 7.36814 9.56778Z" fill="#C5CEEA"/>
<path d="M7.36814 10.5873H5.78633C5.68891 10.5873 5.60986 10.5083 5.60986 10.4108C5.60986 10.3134 5.68891 10.2344 5.78633 10.2344H7.36814C7.46556 10.2344 7.54461 10.3134 7.54461 10.4108C7.54461 10.5083 7.46556 10.5873 7.36814 10.5873Z" fill="#C5CEEA"/>
<path d="M7.42052 12.8061H5.78633C5.68891 12.8061 5.60986 12.727 5.60986 12.6296C5.60986 12.5322 5.68891 12.4531 5.78633 12.4531H7.42052C7.51795 12.4531 7.597 12.5322 7.597 12.6296C7.597 12.727 7.51795 12.8061 7.42052 12.8061Z" fill="#C5CEEA"/>
<path d="M7.42052 13.8256H5.78633C5.68891 13.8256 5.60986 13.7466 5.60986 13.6491C5.60986 13.5517 5.68891 13.4727 5.78633 13.4727H7.42052C7.51795 13.4727 7.597 13.5517 7.597 13.6491C7.597 13.7466 7.51795 13.8256 7.42052 13.8256Z" fill="#C5CEEA"/>
<path d="M13.7792 10.8745C13.7792 12.4015 12.5416 13.6415 11.0122 13.6415C9.48277 13.6415 8.24512 12.3992 8.24512 10.8721C8.24512 9.34506 9.48511 8.10743 11.0122 8.10743C12.5392 8.10507 13.7792 9.34742 13.7792 10.8745Z" fill="#FF9933"/>
<path d="M12.8946 10.8745C12.8946 11.9146 12.0522 12.7569 11.0122 12.7569C9.97223 12.7569 9.12988 11.9122 9.12988 10.8722C9.12988 9.83455 9.97223 8.99219 11.0122 8.99219C12.0522 8.98985 12.8946 9.83455 12.8946 10.8745Z" fill="white"/>
<path d="M14.8416 13.2262C15.2493 13.6338 15.2476 14.2944 14.84 14.702C14.434 15.1079 13.7735 15.1096 13.3659 14.702C13.1313 14.4674 12.7037 13.8202 12.4541 13.2345C12.6371 13.1247 12.8102 12.9883 12.9682 12.8302C13.1279 12.6705 13.2627 12.4991 13.3742 12.3145C13.9598 12.564 14.607 12.9916 14.8416 13.2262Z" fill="#666666"/>
<path d="M1.68003 3.7971C1.63132 3.7971 1.5918 3.75758 1.5918 3.70887V3.21714C1.5918 3.16843 1.63132 3.12891 1.68003 3.12891C1.72875 3.12891 1.76827 3.16843 1.76827 3.21714V3.70887C1.76827 3.75758 1.72875 3.7971 1.68003 3.7971Z" fill="white"/>
<path d="M1.68003 8.58801C1.63132 8.58801 1.5918 8.54848 1.5918 8.49977V4.54722C1.5918 4.49851 1.63132 4.45898 1.68003 4.45898C1.72875 4.45898 1.76827 4.49851 1.76827 4.54722V8.49977C1.76827 8.54848 1.72875 8.58801 1.68003 8.58801Z" fill="white"/>
<path d="M10.6776 11.6282C10.6324 11.6282 10.5873 11.611 10.5529 11.5765L10.0639 11.0877C9.99497 11.0187 9.99497 10.9071 10.0639 10.8381C10.1328 10.7692 10.2445 10.7692 10.3134 10.8381L10.6776 11.2022L11.5605 10.3193C11.6294 10.2503 11.7411 10.2503 11.81 10.3193C11.8789 10.3882 11.8789 10.4999 11.81 10.5688L10.8024 11.5765C10.768 11.611 10.7229 11.6282 10.6776 11.6282Z" fill="#77E244"/>
</g>
<defs>
<clipPath id="clip0_614_29514">
<rect width="16" height="16" fill="white"/>
</clipPath>
</defs>
</svg>
