<svg width="13" height="12" viewBox="0 0 13 12" fill="none" xmlns="http://www.w3.org/2000/svg">
<path fill-rule="evenodd" clip-rule="evenodd" d="M6 2C4.067 2 2.5 3.567 2.5 5.5C2.5 7.433 4.067 9 6 9C7.933 9 9.5 7.433 9.5 5.5C9.5 3.567 7.933 2 6 2ZM1.5 5.5C1.5 3.01472 3.51472 1 6 1C8.48528 1 10.5 3.01472 10.5 5.5C10.5 7.98528 8.48528 10 6 10C3.51472 10 1.5 7.98528 1.5 5.5Z" fill="#686B6C"/>
<path fill-rule="evenodd" clip-rule="evenodd" d="M8.47164 7.97164C8.6669 7.77638 8.98349 7.77638 9.17875 7.97164L11.3537 10.1466C11.549 10.3419 11.549 10.6585 11.3537 10.8537C11.1585 11.049 10.8419 11.049 10.6466 10.8537L8.47164 8.67875C8.27638 8.48349 8.27638 8.1669 8.47164 7.97164Z" fill="#686B6C"/>
</svg>
