<svg width="16" height="16" viewBox="0 0 16 16" fill="none" xmlns="http://www.w3.org/2000/svg">
<g clip-path="url(#clip0_614_29416)">
<path d="M8 3.78125C5.67003 3.78125 3.78125 5.67003 3.78125 8C3.78125 10.33 5.67003 12.2188 8 12.2188C10.33 12.2188 12.2188 10.33 12.2188 8C12.2188 5.67003 10.33 3.78125 8 3.78125ZM8 9.40625C7.22456 9.40625 6.59375 8.77544 6.59375 8C6.59375 7.22456 7.22456 6.59375 8 6.59375C8.77544 6.59375 9.40625 7.22456 9.40625 8C9.40625 8.77544 8.77544 9.40625 8 9.40625Z" fill="#FEA832"/>
<path d="M9.40625 8C9.40625 8.77544 8.77544 9.40625 8 9.40625V12.2188C10.33 12.2188 12.2188 10.33 12.2188 8C12.2188 5.67003 10.33 3.78125 8 3.78125V6.59375C8.77544 6.59375 9.40625 7.22456 9.40625 8Z" fill="#FE9923"/>
<path d="M15.6063 6.60313L13.85 6.3125C13.7281 5.87184 13.55 5.45934 13.3344 5.05622L14.3469 3.63119C14.4781 3.44372 14.4594 3.19059 14.3 3.03122L12.9688 1.69997C12.8094 1.54062 12.5562 1.52184 12.3687 1.65309L10.9438 2.66563C10.5406 2.44997 10.1281 2.27191 9.68747 2.15L9.39684 0.393719C9.35938 0.16875 9.1625 0 8.9375 0H7.0625C6.8375 0 6.64062 0.16875 6.60313 0.393719L6.3125 2.15C5.87184 2.27188 5.45934 2.44994 5.05622 2.66563L3.63125 1.65309C3.44375 1.52184 3.19059 1.54059 3.03125 1.69997L1.70003 3.03125C1.54063 3.19059 1.52191 3.44375 1.65313 3.63122L2.66563 5.05625C2.45003 5.45937 2.27191 5.87188 2.15 6.31253L0.393719 6.60316C0.16875 6.64062 0 6.8375 0 7.0625V8.9375C0 9.1625 0.16875 9.35938 0.393719 9.39688L2.15 9.6875C2.27188 10.1281 2.45 10.5406 2.66563 10.9438L1.65309 12.3687C1.52187 12.5562 1.54059 12.8094 1.7 12.9688L3.03125 14.3C3.19059 14.4594 3.44375 14.4781 3.63125 14.3468L5.05625 13.3344C5.45937 13.55 5.87188 13.7281 6.31253 13.85L6.60316 15.6062C6.64062 15.8312 6.8375 16 7.0625 16H8.9375C9.1625 16 9.35938 15.8312 9.39688 15.6062L9.6875 13.85C10.1282 13.7281 10.5407 13.55 10.9438 13.3344L12.3687 14.3468C12.5562 14.4781 12.8094 14.4594 12.9688 14.3L14.3 12.9688C14.4594 12.8094 14.4781 12.5562 14.3469 12.3687L13.3344 10.9438C13.55 10.5406 13.7281 10.1281 13.85 9.68747L15.6063 9.39684C15.8313 9.35938 16 9.1625 16 8.9375V7.0625C16 6.8375 15.8313 6.64062 15.6063 6.60313ZM8 11.2812C6.19063 11.2812 4.71875 9.80937 4.71875 8C4.71875 6.19063 6.19063 4.71875 8 4.71875C9.80937 4.71875 11.2812 6.19063 11.2812 8C11.2812 9.80937 9.80937 11.2812 8 11.2812Z" fill="#FFCC33"/>
<path d="M16 7.0625V8.9375C16 9.1625 15.8313 9.35938 15.6063 9.39688L13.85 9.6875C13.7281 10.1281 13.55 10.5406 13.3344 10.9438L14.3469 12.3687C14.4781 12.5562 14.4594 12.8094 14.3 12.9688L12.9688 14.3C12.8094 14.4594 12.5562 14.4781 12.3687 14.3468L10.9438 13.3344C10.5406 13.55 10.1281 13.7281 9.68747 13.85L9.39684 15.6062C9.35938 15.8312 9.1625 16 8.9375 16H8V11.2812C9.80938 11.2812 11.2812 9.80937 11.2812 8C11.2812 6.19063 9.80938 4.71875 8 4.71875V0H8.9375C9.1625 0 9.35938 0.16875 9.39688 0.393719L9.6875 2.15C10.1282 2.27188 10.5407 2.44994 10.9438 2.66563L12.3687 1.65309C12.5562 1.52184 12.8094 1.54059 12.9688 1.69997L14.3 3.03125C14.4594 3.19059 14.4781 3.44375 14.3469 3.63122L13.3344 5.05625C13.55 5.45937 13.7281 5.87188 13.85 6.31253L15.6063 6.60316C15.8313 6.64062 16 6.8375 16 7.0625Z" fill="#FEA832"/>
</g>
<defs>
<clipPath id="clip0_614_29416">
<rect width="16" height="16" fill="white"/>
</clipPath>
</defs>
</svg>
