<svg width="16" height="16" viewBox="0 0 16 16" fill="none" xmlns="http://www.w3.org/2000/svg">
<path d="M7.64262 12.7138C7.52003 12.7138 7.42041 12.6141 7.42041 12.4915V9.11284C7.42041 8.99025 7.52003 8.89062 7.64262 8.89062C7.76521 8.89062 7.86483 8.99025 7.86483 9.11284V12.4915C7.86483 12.6141 7.76521 12.7138 7.64262 12.7138Z" fill="#F79219"/>
<path d="M12.2006 12.762C12.078 12.762 11.9784 12.6623 11.9784 12.5398V10.5636H3.30624V12.5398C3.30624 12.6623 3.20661 12.762 3.08403 12.762C2.96144 12.762 2.86182 12.6623 2.86182 12.5398V10.3414C2.86182 10.2188 2.96144 10.1191 3.08403 10.1191H12.2009C12.3235 10.1191 12.4232 10.2188 12.4232 10.3414V12.5398C12.4228 12.6623 12.3235 12.762 12.2006 12.762Z" fill="#F79219"/>
<path d="M12.5872 8.89323V0.345167C12.5872 0.18962 12.3991 0.111846 12.2895 0.22184L11.7188 0.79255C11.6506 0.860695 11.5402 0.860695 11.4721 0.79255L10.7307 0.0511084C10.6625 -0.0170361 10.5521 -0.0170361 10.484 0.0511084L9.74219 0.79255C9.67405 0.860695 9.56368 0.860695 9.49554 0.79255L8.7541 0.0511084C8.68595 -0.0170361 8.57559 -0.0170361 8.50744 0.0511084L7.766 0.79255C7.69786 0.860695 7.58749 0.860695 7.51935 0.79255L6.77791 0.0511084C6.70976 -0.0170361 6.5994 -0.0170361 6.53125 0.0511084L5.78981 0.79255C5.72167 0.860695 5.6113 0.860695 5.54316 0.79255L4.80172 0.0511084C4.73357 -0.0170361 4.62321 -0.0170361 4.55506 0.0511084L3.81288 0.79255C3.74474 0.860695 3.63437 0.860695 3.56623 0.79255L2.99552 0.22184C2.88552 0.111846 2.69775 0.18962 2.69775 0.345167V8.8936C2.69775 9.05729 2.83034 9.18988 2.99403 9.18988H12.2913C12.4546 9.18951 12.5872 9.05692 12.5872 8.89323Z" fill="#E4E4E4"/>
<path d="M2.69727 6.60352V8.89376C2.69727 9.05746 2.82985 9.19004 2.99355 9.19004H12.2908C12.4545 9.19004 12.5871 9.05746 12.5871 8.89376V6.60352H2.69727Z" fill="#E6E7E8"/>
<path d="M8.7545 0.0518646L8.75378 0.0511423L8.75342 0.0507812L8.7545 0.0518646Z" fill="#E6E7E8"/>
<path d="M10.7316 0.0518646L10.7308 0.0511423L10.7305 0.0507812L10.7316 0.0518646Z" fill="#E6E7E8"/>
<path d="M6.77843 0.0518646L6.7777 0.0511423L6.77734 0.0507812L6.77843 0.0518646Z" fill="#E6E7E8"/>
<path d="M7.33568 3.14954H10.6733C10.8333 3.14954 10.9629 3.01992 10.9629 2.85993C10.9629 2.69994 10.8333 2.57031 10.6733 2.57031H7.33568C7.17569 2.57031 7.04606 2.69994 7.04606 2.85993C7.04606 3.01992 7.17569 3.14954 7.33568 3.14954Z" fill="#C2C2C2"/>
<path d="M4.24618 3.14954H5.65277C5.81276 3.14954 5.94238 3.01992 5.94238 2.85993C5.94238 2.69994 5.81276 2.57031 5.65277 2.57031H4.24618C4.08619 2.57031 3.95656 2.69994 3.95656 2.85993C3.95656 3.01992 4.08619 3.14954 4.24618 3.14954Z" fill="#C2C2C2"/>
<path d="M7.33568 4.58118H10.6733C10.8333 4.58118 10.9629 4.45156 10.9629 4.29157C10.9629 4.13158 10.8333 4.00195 10.6733 4.00195H7.33568C7.17569 4.00195 7.04606 4.13158 7.04606 4.29157C7.04606 4.45156 7.17569 4.58118 7.33568 4.58118Z" fill="#C2C2C2"/>
<path d="M4.24618 4.58118H5.65277C5.81276 4.58118 5.94238 4.45156 5.94238 4.29157C5.94238 4.13158 5.81276 4.00195 5.65277 4.00195H4.24618C4.08619 4.00195 3.95656 4.13158 3.95656 4.29157C3.95656 4.45156 4.08619 4.58118 4.24618 4.58118Z" fill="#C2C2C2"/>
<path d="M7.33568 6.01478H10.6733C10.8333 6.01478 10.9629 5.88515 10.9629 5.72516C10.9629 5.56517 10.8333 5.43555 10.6733 5.43555H7.33568C7.17569 5.43555 7.04606 5.56517 7.04606 5.72516C7.04606 5.88478 7.17569 6.01478 7.33568 6.01478Z" fill="#C2C2C2"/>
<path d="M4.24618 6.01478H5.65277C5.81276 6.01478 5.94238 5.88515 5.94238 5.72516C5.94238 5.56517 5.81276 5.43555 5.65277 5.43555H4.24618C4.08619 5.43555 3.95656 5.56517 3.95656 5.72516C3.95656 5.88478 4.08619 6.01478 4.24618 6.01478Z" fill="#C2C2C2"/>
<path d="M10.7053 8.1261H7.36774C7.20775 8.1261 7.07812 7.99648 7.07812 7.83649C7.07812 7.6765 7.20775 7.54688 7.36774 7.54688H10.7053C10.8653 7.54688 10.995 7.6765 10.995 7.83649C10.995 7.99648 10.8653 8.1261 10.7053 8.1261Z" fill="#808285"/>
<path d="M8.12105 13.2129H7.16406C6.27744 13.2129 5.55859 13.9317 5.55859 14.8184V15.8287C5.55859 15.9227 5.63489 15.9987 5.72859 15.9987H9.55653C9.6506 15.9987 9.72652 15.9224 9.72652 15.8287V14.8184C9.72652 13.9317 9.00767 13.2129 8.12105 13.2129Z" fill="#F79219"/>
<path d="M8.82446 13.375C8.92816 13.5872 8.98631 13.8261 8.98631 14.0783V15.0886C8.98631 15.1827 8.91001 15.2586 8.81631 15.2586H5.55908V15.8293C5.55908 15.9234 5.63537 15.9993 5.72907 15.9993H9.55702C9.65109 15.9993 9.72701 15.923 9.72701 15.8293V14.819C9.72664 14.1842 9.35851 13.6357 8.82446 13.375Z" fill="#EF7816"/>
<path d="M7.64132 13.8354C8.38113 13.8354 8.98087 13.2356 8.98087 12.4958C8.98087 11.756 8.38113 11.1562 7.64132 11.1562C6.9015 11.1562 6.30176 11.756 6.30176 12.4958C6.30176 13.2356 6.9015 13.8354 7.64132 13.8354Z" fill="#FCC4AE"/>
<path d="M8.38674 11.375C8.52895 11.588 8.61228 11.8439 8.61228 12.119C8.61228 12.859 8.01231 13.459 7.27235 13.459C6.99718 13.459 6.74127 13.376 6.52832 13.2334C6.76868 13.5927 7.17792 13.8293 7.6427 13.8293C8.38267 13.8293 8.98263 13.2293 8.98263 12.4894C8.98263 12.0246 8.74598 11.6154 8.38674 11.375Z" fill="#F2AD97"/>
<path d="M3.56294 13.2148H2.60596C1.71934 13.2148 1.00049 13.9337 1.00049 14.8203V15.8306C1.00049 15.9247 1.07678 16.0006 1.17048 16.0006H4.99842C5.09249 16.0006 5.16841 15.9243 5.16841 15.8306V14.8203C5.16841 13.9337 4.44956 13.2148 3.56294 13.2148Z" fill="#76A34F"/>
<path d="M4.26575 13.375C4.36945 13.5872 4.42759 13.8261 4.42759 14.0783V15.0886C4.42759 15.1827 4.3513 15.2586 4.2576 15.2586H1V15.8293C1 15.9234 1.07629 15.9993 1.16999 15.9993H4.99793C5.092 15.9993 5.16792 15.923 5.16792 15.8293V14.819C5.1683 14.1842 4.80017 13.6357 4.26575 13.375Z" fill="#648940"/>
<path d="M3.08175 13.8354C3.82156 13.8354 4.4213 13.2356 4.4213 12.4958C4.4213 11.756 3.82156 11.1562 3.08175 11.1562C2.34193 11.1562 1.74219 11.756 1.74219 12.4958C1.74219 13.2356 2.34193 13.8354 3.08175 13.8354Z" fill="#FCC4AE"/>
<path d="M3.82815 11.377C3.97036 11.5899 4.05369 11.8458 4.05369 12.121C4.05369 12.8609 3.45372 13.4609 2.71376 13.4609C2.43859 13.4609 2.18268 13.378 1.96973 13.2354C2.21008 13.5946 2.61932 13.8313 3.08411 13.8313C3.82407 13.8313 4.42404 13.2313 4.42404 12.4913C4.42404 12.0265 4.18739 11.6173 3.82815 11.377Z" fill="#F2AD97"/>
<path d="M12.6801 13.2129H11.7231C10.8365 13.2129 10.1177 13.9317 10.1177 14.8184V15.8287C10.1177 15.9227 10.194 15.9987 10.2877 15.9987H14.1156C14.2097 15.9987 14.2856 15.9224 14.2856 15.8287V14.8184C14.2856 13.9317 13.5668 13.2129 12.6801 13.2129Z" fill="#76A34F"/>
<path d="M13.3831 13.375C13.4868 13.5872 13.5449 13.8261 13.5449 14.0783V15.0886C13.5449 15.1827 13.4686 15.2586 13.3749 15.2586H10.1177V15.8293C10.1177 15.9234 10.194 15.9993 10.2877 15.9993H14.1156C14.2097 15.9993 14.2856 15.923 14.2856 15.8293V14.819C14.2856 14.1842 13.9175 13.6357 13.3831 13.375Z" fill="#648940"/>
<path d="M13.6149 13.5137C13.8038 13.777 13.9152 14.0999 13.9152 14.4488V15.4591C13.9152 15.5532 13.839 15.6291 13.7453 15.6291H10.1177V15.8295C10.1177 15.9235 10.194 15.9995 10.2877 15.9995H14.1156C14.2097 15.9995 14.2856 15.9232 14.2856 15.8295V14.8192C14.2856 14.281 14.0212 13.8048 13.6149 13.5137Z" fill="#5A7A39"/>
<path d="M12.2009 13.8373C12.9407 13.8373 13.5404 13.2376 13.5404 12.4978C13.5404 11.7579 12.9407 11.1582 12.2009 11.1582C11.4611 11.1582 10.8613 11.7579 10.8613 12.4978C10.8613 13.2376 11.4611 13.8373 12.2009 13.8373Z" fill="#FCC4AE"/>
<path d="M12.9448 11.377C13.0871 11.5899 13.1704 11.8458 13.1704 12.121C13.1704 12.8609 12.5704 13.4609 11.8305 13.4609C11.5553 13.4609 11.2994 13.378 11.0864 13.2354C11.3268 13.5946 11.736 13.8313 12.2008 13.8313C12.9408 13.8313 13.5407 13.2313 13.5407 12.4913C13.5407 12.0265 13.3041 11.6173 12.9448 11.377Z" fill="#F2AD97"/>
<path d="M3.14179 8.57981C3.06032 8.57981 2.99365 8.51315 2.99365 8.43167V1.80906C2.99365 1.72758 3.06032 1.66092 3.14179 1.66092C3.22327 1.66092 3.28993 1.72758 3.28993 1.80906V8.43167C3.28993 8.51315 3.22327 8.57981 3.14179 8.57981ZM3.14179 1.36464C3.06032 1.36464 2.99365 1.29798 2.99365 1.2165C2.99365 1.13502 3.06032 1.06836 3.14179 1.06836C3.22327 1.06836 3.28993 1.13502 3.28993 1.2165C3.28993 1.29798 3.22327 1.36464 3.14179 1.36464Z" fill="white"/>
</svg>
