<svg width="16" height="16" viewBox="0 0 16 16" fill="none" xmlns="http://www.w3.org/2000/svg">
<path d="M13.5687 7.45171V14.5505C13.5687 14.733 13.388 14.8605 13.2162 14.7992C11.7718 14.2861 9.23365 14.3361 7.9999 14.9467V14.9461C6.76615 14.3361 4.2274 14.2861 2.78303 14.7992C2.61115 14.8598 2.43115 14.7323 2.43115 14.5505V7.45109C2.43115 7.34421 2.49553 7.24796 2.59428 7.20671C2.89428 7.08109 3.2549 6.98296 3.64865 6.91296C4.79678 6.70984 6.22803 6.74484 7.27615 7.02046V7.73859H8.72365V7.02046C9.77178 6.74546 11.203 6.70921 12.3512 6.91359C12.7449 6.98296 13.1049 7.08109 13.4049 7.20734C13.5037 7.24859 13.5687 7.34421 13.5687 7.45171Z" fill="#F2E1D6"/>
<path d="M14.3394 8.47469V15.5491C14.3394 15.6947 14.2213 15.8128 14.0756 15.8128H1.92439C1.77877 15.8128 1.66064 15.6947 1.66064 15.5491V8.47469C1.66064 8.32906 1.77877 8.21094 1.92439 8.21094H2.43127V14.5503C2.43127 14.7322 2.61127 14.8597 2.78314 14.7991C4.22752 14.2859 6.76627 14.3359 8.00002 14.9459V14.9466C9.23439 14.3359 11.7719 14.2859 13.2163 14.7991C13.3881 14.8603 13.5688 14.7328 13.5688 14.5503V8.21094H14.0756C14.2213 8.21094 14.3394 8.32906 14.3394 8.47469Z" fill="#FC5D3D"/>
<path d="M12.646 5.28102C12.646 5.67789 12.596 6.06352 12.5016 6.43164C12.4604 6.59539 12.4098 6.75602 12.351 6.91289C11.2029 6.70852 9.77164 6.74477 8.72352 7.01977V7.73789H7.27602V7.01977C6.22789 6.74414 4.79664 6.70914 3.64852 6.91227C3.58977 6.75602 3.53977 6.59539 3.49789 6.43164C3.40352 6.06352 3.35352 5.67852 3.35352 5.28102C3.35352 2.71477 5.43352 0.634766 7.99977 0.634766C10.566 0.634766 12.646 2.71477 12.646 5.28102Z" fill="#72C2E9"/>
<path d="M12.5018 6.43141C12.4605 6.59516 12.4099 6.75578 12.3512 6.91266C11.203 6.70828 9.7718 6.74453 8.72367 7.01953V7.73766H7.27617V7.01953C6.22805 6.74391 4.7968 6.70891 3.64867 6.91203C3.58992 6.75578 3.53992 6.59516 3.49805 6.43141C4.45055 6.25391 5.53242 6.24703 6.3968 6.35016C6.22305 6.15453 6.23305 5.86766 6.39992 5.68328L7.6293 4.32641C7.82742 4.10766 8.1718 4.10703 8.37055 4.32641L9.59992 5.68328C9.76742 5.86828 9.77617 6.15516 9.60305 6.35016C10.4574 6.24891 11.543 6.25328 12.5018 6.43141Z" fill="#4BA5C8"/>
<path d="M2.74485 2.6388C2.51179 2.56205 2.32979 2.51242 2.20791 1.98748C2.16823 1.81642 1.92366 1.81692 1.8841 1.98748C1.76491 2.5008 1.59873 2.55573 1.34716 2.63886C1.19566 2.68892 1.19529 2.90436 1.34716 2.95455C1.76504 3.09261 1.81241 3.2968 1.8841 3.60586C1.92391 3.7773 2.16816 3.77723 2.20798 3.60586C2.32704 3.09261 2.50229 3.03467 2.74491 2.95455C2.89635 2.90442 2.89673 2.68898 2.74485 2.6388Z" fill="#72C2E9"/>
<path d="M2.29922 2.80117C2.20734 2.86617 2.12484 2.95242 2.05359 3.07867C1.99422 2.9793 1.91297 2.88555 1.79297 2.80367C1.88984 2.73742 1.97672 2.6468 2.05047 2.51367C2.12547 2.64867 2.21109 2.73805 2.29922 2.80117Z" fill="#F0C020"/>
<path d="M14.6531 2.6388C14.42 2.56205 14.238 2.51242 14.1161 1.98748C14.0764 1.81642 13.8319 1.81692 13.7923 1.98748C13.6731 2.5008 13.5069 2.55573 13.2554 2.63886C13.1039 2.68892 13.1035 2.90436 13.2554 2.95455C13.6732 3.09261 13.7206 3.2968 13.7923 3.60586C13.8321 3.7773 14.0764 3.77723 14.1162 3.60586C14.2352 3.09261 14.4105 3.03467 14.6531 2.95455C14.8046 2.90442 14.8049 2.68898 14.6531 2.6388Z" fill="#72C2E9"/>
<path d="M14.2074 2.80117C14.1155 2.86617 14.033 2.95242 13.9618 3.07867C13.9024 2.9793 13.8212 2.88555 13.7012 2.80367C13.798 2.73742 13.8849 2.6468 13.9587 2.51367C14.0337 2.64867 14.1193 2.73805 14.2074 2.80117Z" fill="#F0C020"/>
<path d="M9.22926 6.01898H8.72363V7.73773H7.27613V6.01898H6.77051L7.99988 4.66211L9.22926 6.01898Z" fill="#F0C020"/>
<path d="M14.0055 8.21094V14.5503C14.0055 15.0397 13.5218 15.3722 13.0699 15.2116C11.7262 14.7341 9.31053 14.7859 8.19365 15.3384C8.06553 15.4022 7.9149 15.3991 7.78928 15.3303C6.65803 14.7822 4.25803 14.7397 2.92928 15.2109C2.4699 15.3741 1.99365 15.0309 1.99365 14.5503V8.21094H2.43115V14.5503C2.43115 14.7322 2.61115 14.8597 2.78303 14.7991C4.2274 14.2859 6.76615 14.3359 7.9999 14.9459V14.9466C9.23428 14.3359 11.7718 14.2859 13.2162 14.7991C13.388 14.8603 13.5687 14.7328 13.5687 14.5503V8.21094H14.0055Z" fill="#B25035"/>
<path d="M7.94331 14.4083C6.60656 13.8819 4.48712 13.8651 3.09431 14.216C3.011 14.2371 2.92575 14.1863 2.90469 14.1027C2.88356 14.019 2.93437 13.9341 3.018 13.913C4.455 13.5509 6.60081 13.5667 8.00056 14.0954C9.20219 13.6414 10.8856 13.5818 12.1671 13.7579C12.2526 13.7696 12.3124 13.8484 12.3006 13.9339C12.2889 14.0194 12.2104 14.0792 12.1246 14.0674C10.8804 13.8964 9.21225 13.9536 8.05787 14.4083C8.021 14.4228 7.98012 14.4228 7.94331 14.4083ZM12.9054 14.2162C12.8472 14.2015 12.7878 14.1875 12.7274 14.1742C12.6431 14.1556 12.5899 14.0722 12.6085 13.9879C12.6271 13.9037 12.7101 13.8504 12.7947 13.869C12.8582 13.883 12.9206 13.8978 12.9817 13.9132C13.0654 13.9343 13.1161 14.0192 13.0951 14.1029C13.0739 14.1869 12.9887 14.2373 12.9054 14.2162Z" fill="white"/>
<path d="M11.9416 6.09527C11.8565 6.08108 11.799 6.00064 11.8131 5.91552C11.8228 5.85702 11.8313 5.79695 11.8385 5.73695C11.8488 5.65127 11.9262 5.59045 12.0122 5.60039C12.0979 5.61064 12.1591 5.68845 12.1488 5.77414C12.1411 5.83883 12.1318 5.90364 12.1213 5.96683C12.1072 6.05164 12.027 6.10945 11.9416 6.09527ZM12.0197 5.28802C11.936 5.28802 11.8667 5.2217 11.8637 5.13739C11.7887 3.05064 10.0917 1.41602 8.00016 1.41602C7.09316 1.41602 6.21097 1.73783 5.51609 2.32227C5.45009 2.37783 5.35147 2.36939 5.29597 2.30327C5.24041 2.2372 5.24891 2.1387 5.31497 2.08314C6.06609 1.45145 7.01972 1.10352 8.00016 1.10352C10.2749 1.10352 12.0966 2.91814 12.176 5.12614C12.1791 5.21239 12.1117 5.28483 12.0255 5.28789C12.0235 5.28795 12.0216 5.28802 12.0197 5.28802Z" fill="#C5E5FE"/>
<path d="M3.42204 8.44629C4.54279 8.17879 5.87991 8.17004 7.01266 8.41542C7.09747 8.43385 7.18022 8.3801 7.19847 8.29579C7.21672 8.21142 7.16322 8.12829 7.07885 8.10998C5.92135 7.85929 4.53579 7.85917 3.34954 8.14235C3.26554 8.16235 3.21379 8.24667 3.23379 8.3306C3.25391 8.4146 3.33822 8.46629 3.42204 8.44629Z" fill="black"/>
<path d="M12.3051 8.01419C11.3517 7.87638 10.2518 7.89338 9.25259 8.10982C9.16822 8.12807 9.11472 8.21125 9.13297 8.29563C9.15122 8.37982 9.23421 8.4335 9.31878 8.41525C10.2689 8.20944 11.3305 8.18913 12.2604 8.3235C12.3457 8.33569 12.425 8.27663 12.4374 8.19119C12.4497 8.10575 12.3905 8.0265 12.3051 8.01419Z" fill="black"/>
<path d="M3.23379 9.4888C3.25385 9.57286 3.33822 9.62448 3.42204 9.60448C4.57416 9.32948 5.91285 9.3353 7.01266 9.57361C7.09741 9.59198 7.18022 9.5383 7.19847 9.45398C7.21672 9.36961 7.16322 9.28648 7.07885 9.26817C5.91941 9.01698 4.53335 9.01792 3.34954 9.30055C3.26554 9.32055 3.21379 9.40486 3.23379 9.4888Z" fill="black"/>
<path d="M12.3051 9.17241C11.3523 9.03466 10.2522 9.05147 9.25259 9.26803C9.16822 9.28628 9.11472 9.36947 9.13297 9.45384C9.15122 9.53803 9.23421 9.59172 9.31878 9.57347C10.2713 9.3671 11.3332 9.34772 12.2604 9.48172C12.3457 9.49397 12.425 9.43484 12.4374 9.34941C12.4497 9.26403 12.3905 9.18478 12.3051 9.17241Z" fill="black"/>
<path d="M3.23379 10.649C3.25385 10.7331 3.33822 10.7847 3.42204 10.7647C4.57429 10.4897 5.91272 10.4955 7.01266 10.7338C7.09747 10.7521 7.18022 10.6985 7.19847 10.6142C7.21672 10.5298 7.16322 10.4467 7.07885 10.4284C5.9191 10.1772 4.5336 10.178 3.34954 10.4607C3.26554 10.4808 3.21379 10.565 3.23379 10.649Z" fill="black"/>
<path d="M12.3051 10.3325C11.3517 10.1948 10.2523 10.2117 9.25259 10.4282C9.16822 10.4464 9.11472 10.5296 9.13297 10.614C9.15122 10.6982 9.23421 10.7519 9.31878 10.7336C10.2708 10.5274 11.332 10.5078 12.2604 10.6419C12.3457 10.6542 12.425 10.595 12.4374 10.5095C12.4497 10.4241 12.3905 10.3449 12.3051 10.3325Z" fill="black"/>
<path d="M3.23379 11.8072C3.25385 11.8912 3.33822 11.9429 3.42204 11.9229C4.54279 11.6554 5.87991 11.6466 7.01266 11.892C7.09747 11.9104 7.18022 11.8567 7.19847 11.7724C7.21672 11.688 7.16322 11.6049 7.07885 11.5865C5.92135 11.3359 4.53579 11.3357 3.34954 11.6189C3.26554 11.6389 3.21379 11.7232 3.23379 11.8072Z" fill="black"/>
<path d="M12.3051 11.4908C11.3517 11.3529 10.2518 11.3699 9.25259 11.5864C9.16822 11.6046 9.11472 11.6878 9.13297 11.7722C9.15122 11.8564 9.23421 11.9101 9.31878 11.8918C10.2689 11.686 11.3305 11.6657 12.2604 11.8001C12.3457 11.8124 12.425 11.7532 12.4374 11.6678C12.4497 11.5823 12.3905 11.5031 12.3051 11.4908Z" fill="black"/>
<path d="M3.23379 12.9654C3.25385 13.0494 3.33822 13.101 3.42204 13.081C4.57416 12.806 5.91285 12.8119 7.01266 13.0502C7.09741 13.0684 7.18022 13.0149 7.19847 12.9305C7.21672 12.8462 7.16322 12.763 7.07885 12.7447C5.91941 12.4935 4.53335 12.4945 3.34954 12.7771C3.26554 12.7971 3.21379 12.8814 3.23379 12.9654Z" fill="black"/>
<path d="M12.3051 12.649C11.3523 12.5112 10.2522 12.528 9.25259 12.7446C9.16822 12.7628 9.11472 12.846 9.13297 12.9304C9.15122 13.0146 9.23421 13.0683 9.31878 13.05C10.2713 12.8437 11.3332 12.8243 12.2604 12.9583C12.3457 12.9707 12.425 12.9114 12.4374 12.826C12.4497 12.7406 12.3905 12.6613 12.3051 12.649Z" fill="black"/>
<path d="M10.9111 1.65605C10.8543 1.7218 10.8622 1.82049 10.9273 1.87667C10.9935 1.9328 11.092 1.92505 11.148 1.8598C11.2042 1.7948 11.1967 1.69605 11.131 1.6398C11.131 1.63917 11.131 1.63917 11.1304 1.63917C11.068 1.58542 10.9648 1.59355 10.9111 1.65605Z" fill="black"/>
<path d="M2.43115 10.707C2.51745 10.707 2.5874 10.6371 2.5874 10.5508C2.5874 10.4645 2.51745 10.3945 2.43115 10.3945C2.34486 10.3945 2.2749 10.4645 2.2749 10.5508C2.2749 10.6371 2.34486 10.707 2.43115 10.707Z" fill="black"/>
<path d="M12.2007 15.9688C12.287 15.9688 12.3569 15.8988 12.3569 15.8125C12.3569 15.7262 12.287 15.6562 12.2007 15.6562C12.1144 15.6562 12.0444 15.7262 12.0444 15.8125C12.0444 15.8988 12.1144 15.9688 12.2007 15.9688Z" fill="black"/>
</svg>
