<svg width="18" height="18" viewBox="0 0 18 18" fill="none" xmlns="http://www.w3.org/2000/svg">
<mask id="mask0_652_25643" style="mask-type:alpha" maskUnits="userSpaceOnUse" x="0" y="0" width="18" height="18">
<rect width="18" height="18" fill="currentColor"/>
</mask>
<g mask="url(#mask0_652_25643)">
<path fill-rule="evenodd" clip-rule="evenodd" d="M7.70619 11.2945L8.90272 10.098V8.21558H10.6975V8.30318L11.8941 7.10664V7.03381H7.70619V8.80646H6.50965V4.07941H7.70619V5.85205H11.8941V1.125H7.70619V2.89764H4.11658V1.125H-0.0712891V5.85205H4.11658V4.07941H5.31312V9.98822H7.70619V11.2945ZM10.6975 4.67029H8.90272V2.30676H10.6975V4.67029ZM2.92005 4.67029H1.12525V2.30676H2.92005V4.67029Z" fill="currentColor"/>
<path d="M12.1377 12.2646L10.0847 10.1874L6.92634 13.3831L8.95955 15.4603L12.1377 12.2646ZM11.2099 9.06891L13.2431 11.1261L16.4015 7.95042L14.3486 5.87323L11.2099 9.06891ZM9.55175 8.48969L13.8156 12.8039L10.0847 16.5987C9.76889 16.9183 9.39699 17.0781 8.96903 17.0781C8.54107 17.0781 8.16943 16.9183 7.85412 16.5987L7.75542 16.6786C7.61066 16.7985 7.45274 16.8917 7.28166 16.9582C7.11058 17.0248 6.93292 17.0581 6.74868 17.0581H4.34041C4.15617 17.0581 4.02799 16.9782 3.95587 16.8184C3.88376 16.6587 3.91324 16.5122 4.04431 16.379L5.86038 14.5615C5.54454 14.2419 5.38005 13.859 5.36689 13.4126C5.35373 12.9663 5.50506 12.5836 5.8209 12.2646L9.55175 8.48969ZM9.55175 8.48969L13.2431 4.75474C13.559 4.43517 13.9309 4.27539 14.3588 4.27539C14.7868 4.27539 15.1584 4.43517 15.4737 4.75474L17.5267 6.81196C17.8425 7.13153 18.0004 7.50782 18.0004 7.94084C18.0004 8.37385 17.8425 8.74988 17.5267 9.06891L13.8156 12.8039L9.55175 8.48969Z" fill="currentColor"/>
</g>
</svg>
