<svg width="17" height="16" viewBox="0 0 17 16" fill="none" xmlns="http://www.w3.org/2000/svg">
<mask id="mask0_631_27419" style="mask-type:alpha" maskUnits="userSpaceOnUse" x="0" y="0" width="17" height="16">
<rect x="0.5" width="16" height="16" fill="#D9D9D9"/>
</mask>
<g mask="url(#mask0_631_27419)">
<path d="M13.0668 14.6503C12.9779 14.6503 12.8946 14.6364 12.8168 14.6087C12.7391 14.5809 12.6668 14.5337 12.6002 14.467L9.20016 11.067C9.1335 11.0003 9.08627 10.9281 9.0585 10.8503C9.03072 10.7725 9.01683 10.6892 9.01683 10.6003C9.01683 10.5114 9.03072 10.4281 9.0585 10.3503C9.08627 10.2725 9.1335 10.2003 9.20016 10.1337L10.6168 8.71699C10.6835 8.65033 10.7557 8.6031 10.8335 8.57533C10.9113 8.54755 10.9946 8.53366 11.0835 8.53366C11.1724 8.53366 11.2557 8.54755 11.3335 8.57533C11.4113 8.6031 11.4835 8.65033 11.5502 8.71699L14.9502 12.117C15.0168 12.1837 15.0641 12.2559 15.0918 12.3337C15.1196 12.4114 15.1335 12.4948 15.1335 12.5837C15.1335 12.6725 15.1196 12.7559 15.0918 12.8337C15.0641 12.9114 15.0168 12.9837 14.9502 13.0503L13.5335 14.467C13.4668 14.5337 13.3946 14.5809 13.3168 14.6087C13.2391 14.6364 13.1557 14.6503 13.0668 14.6503ZM13.0668 13.067L13.5502 12.5837L11.1002 10.1337L10.6168 10.617L13.0668 13.067ZM3.91683 14.667C3.82794 14.667 3.74183 14.6503 3.6585 14.617C3.57516 14.5837 3.50016 14.5337 3.4335 14.467L2.0335 13.067C1.96683 13.0003 1.91683 12.9253 1.8835 12.842C1.85016 12.7587 1.8335 12.6725 1.8335 12.5837C1.8335 12.4948 1.85016 12.4114 1.8835 12.3337C1.91683 12.2559 1.96683 12.1837 2.0335 12.117L5.56683 8.58366H6.9835L7.55016 8.01699L4.80016 5.26699H3.85016L1.8335 3.25033L3.71683 1.36699L5.7335 3.38366V4.33366L8.4835 7.08366L10.4168 5.15033L9.70016 4.43366L10.6335 3.50033H8.75016L8.2835 3.03366L10.6502 0.666992L11.1168 1.13366V3.01699L12.0502 2.08366L14.4168 4.45033C14.6057 4.63921 14.7502 4.8531 14.8502 5.09199C14.9502 5.33088 15.0002 5.58366 15.0002 5.85033C15.0002 6.11699 14.9502 6.37255 14.8502 6.61699C14.7502 6.86144 14.6057 7.0781 14.4168 7.26699L13.0002 5.85033L12.0668 6.78366L11.3668 6.08366L7.91683 9.53366V10.9337L4.3835 14.467C4.31683 14.5337 4.24461 14.5837 4.16683 14.617C4.08905 14.6503 4.00572 14.667 3.91683 14.667ZM3.91683 13.067L6.75016 10.2337V9.75033H6.26683L3.4335 12.5837L3.91683 13.067ZM3.91683 13.067L3.4335 12.5837L3.6835 12.817L3.91683 13.067Z" fill="#1C1B1F"/>
</g>
</svg>
